<svg xmlns="http://www.w3.org/2000/svg" width="2260" height="1271.001" viewBox="0 0 2260 1271.001"><path d="M-628,1271H-2888V0H-628V1271ZM-1757.5,32.969c-21.706,0-43.484.524-64.73,1.558-21.076,1.025-42.211,2.581-62.816,4.623-20.439,2.026-40.926,4.587-60.892,7.613-19.809,3-39.646,6.545-58.959,10.528-19.171,3.954-38.355,8.451-57.017,13.368-18.528,4.881-37.055,10.308-55.067,16.132-17.881,5.782-35.749,12.114-53.106,18.821-17.237,6.661-34.442,13.873-51.137,21.436-16.584,7.513-33.123,15.579-49.158,23.974-15.93,8.341-31.8,17.236-47.17,26.438-15.272,9.143-30.47,18.842-45.173,28.826-14.612,9.923-29.135,20.4-43.166,31.14-13.946,10.675-27.791,21.9-41.15,33.378-13.28,11.4-26.444,23.362-39.125,35.54-12.611,12.109-25.09,24.769-37.091,37.628-11.941,12.793-23.733,26.13-35.048,39.64-11.263,13.448-22.365,27.436-33,41.577-10.584,14.079-20.992,28.694-30.934,43.439-9.9,14.685-19.612,29.9-28.863,45.226-9.216,15.268-18.227,31.059-26.782,46.937-8.527,15.824-16.834,32.167-24.692,48.573-7.834,16.355-15.435,33.223-22.594,50.134-7.137,16.861-14.03,34.229-20.486,51.62-6.439,17.346-12.619,35.188-18.369,53.03-5.738,17.808-11.2,36.1-16.242,54.366-5.032,18.24-9.778,36.955-14.106,55.626-8.647,37.3-15.971,75.9-21.769,114.731-5.794,38.806-10.207,78.8-13.116,118.868-2.912,40.117-4.388,81.3-4.388,122.4H-681.359c0-41.1-1.476-82.282-4.388-122.4-2.908-40.068-7.321-80.061-13.116-118.868-5.8-38.828-13.121-77.429-21.769-114.731-4.329-18.672-9.075-37.388-14.106-55.626-5.039-18.267-10.5-36.558-16.242-54.366-5.747-17.837-11.928-35.679-18.369-53.03-6.453-17.384-13.346-34.751-20.486-51.62-7.159-16.911-14.76-33.778-22.594-50.134-7.859-16.408-16.167-32.75-24.693-48.573-8.554-15.876-17.565-31.668-26.782-46.937-9.25-15.324-18.961-30.541-28.862-45.226-9.941-14.744-20.349-29.359-30.933-43.439-10.632-14.142-21.733-28.131-33-41.577-11.315-13.509-23.106-26.846-35.048-39.64-12-12.858-24.481-25.518-37.091-37.628-12.682-12.179-25.846-24.136-39.125-35.54-13.36-11.474-27.205-22.7-41.151-33.378-14.031-10.74-28.554-21.217-43.166-31.14-14.7-9.984-29.9-19.683-45.173-28.826-15.369-9.2-31.24-18.1-47.17-26.438-16.035-8.4-32.574-16.462-49.158-23.974-16.695-7.563-33.9-14.775-51.137-21.436-17.358-6.707-35.225-13.039-53.106-18.821-18.012-5.824-36.539-11.252-55.067-16.132-18.663-4.916-37.846-9.414-57.017-13.368-19.314-3.984-39.151-7.526-58.96-10.528-19.966-3.026-40.453-5.587-60.892-7.613-20.6-2.043-41.739-3.6-62.816-4.623C-1714.016,33.493-1735.794,32.969-1757.5,32.969Z" transform="translate(2888)" fill="#909090"/></svg>