<?xml version="1.0" encoding="UTF-8"?>
<svg id="Layer_2" xmlns="http://www.w3.org/2000/svg" viewBox="0 0 1526.84 867.8">
  <defs>
    <style>
      .cls-1 {
        fill: #ebdaa9;
      }

      .cls-2 {
        fill: #341c10;
      }

      .cls-3 {
        fill: #efe9d3;
      }
    </style>
  </defs>
  <g id="_x31_">
    <g>
      <g>
        <path class="cls-2" d="M274.47,708.64c2.23,2.22,3.81,5.67,4.75,10.33,1.75,8.66.99,16.1-2.26,22.31-9.62,18.16-19.74,31.85-30.36,41.12-10.62,9.28-24.27,16.34-40.94,21.46-11.72,3.6-22.82,5.63-33.31,6.07-10.49.44-23.41.28-38.77-.27-13.95-.8-27.26-.57-39.91.66-7.32,24.64-22.47,41.46-45.43,51.38-12.61,5.46-23.25,7.3-31.93,5.35-8.68-1.95-13.91-7.1-15.7-15.61-2.19-10.4,1.28-21.63,10.4-33.51,9.12-11.85,22.46-21.79,40.02-29.35,1.46-.63,2.93-1.26,4.39-1.88-4.48-32.12-8.96-64.21-13.44-96.27-3.12-22.01-2.76-41.47,1.09-58.36,3.85-16.88,10.7-32.84,20.58-47.73,8.56-12.93,19.03-24.28,31.4-33.92,12.37-9.62,25.98-17.15,40.84-22.47,24.32-8.69,44.27-8.61,59.84-.4,15.57,8.23,25.37,22.44,29.4,42.28,2.73,13.46,2.45,25.05-.82,34.77-3.28,9.73-9.31,15.88-18.09,18.57-6.31,1.93-11.57,2-15.77.18-4.21-1.82-6.87-5.46-7.99-10.94-.4-1.97-.69-5.74-.86-11.29.1-6.57-.34-12.27-1.33-17.1-1.88-9.21-6.13-15.6-12.74-19.12-6.62-3.52-15.55-3.36-26.81.63-19.82,7.02-33.84,19.14-42.08,35.77-8.23,16.65-11.07,38.9-8.49,66.63,2.49,25.55,4.98,51.11,7.46,76.68,1.02,10.82,1.41,20.38,1.18,28.65,14.9-3.22,33.7-6.17,56.39-8.37,13.24-1.27,23.37-2.23,30.4-3.09,7.03-.85,13.13-2.06,18.31-3.66,13.06-4.02,23.83-9.45,32.31-16.43,8.47-6.98,15.92-16.34,22.33-28.13,2.08-3.83,4.81-6.21,8.18-7.11,2.93-.78,5.51-.06,7.73,2.16Z"/>
        <path class="cls-2" d="M443.51,643.16c2.16,2.66,3.69,6.25,4.58,10.76,2.15,10.84.16,17.83-5.98,21.01-12.59,7.12-26.93,12.54-43.02,16.37-.52,19.72-5.96,36.47-16.32,50.35-10.36,13.89-23.54,22.53-39.54,26.08-13.52,3.01-25.72,2.48-36.6-1.66-10.88-4.13-19.87-10.85-26.97-20.23-7.11-9.38-11.91-20.24-14.42-32.66-3.4-16.84-3.17-32.74.7-47.67,3.87-14.93,10.8-27.63,20.79-38,9.99-10.36,21.97-17.22,35.95-20.48,17.12-3.99,32.11-1.11,44.94,8.47,12.83,9.58,21.87,22.92,27.13,39.86,10.46-2.76,22.63-7.4,36.53-13.88,1.71-.77,3.25-1.28,4.6-1.53,2.93-.52,5.47.55,7.64,3.2ZM355.83,718.72c4.13-6.96,6-16.11,5.61-27.48-7.93-3.22-14.51-8.19-19.75-14.97-5.24-6.77-8.71-14.38-10.42-22.88-.72-3.57-1.09-7.22-1.14-10.95-.56.13-1.13.26-1.69.39-9.02,2.07-15.65,8.16-19.89,18.17-4.25,10.02-4.8,22.83-1.67,38.42,2.46,12.26,6.76,21.03,12.91,26.35,6.14,5.33,12.48,7.26,19.02,5.79,7.21-1.62,12.88-5.89,17.02-12.85Z"/>
        <path class="cls-2" d="M496.44,738.43c-7.28-4.47-11.59-10.08-12.93-16.87-1.17-5.88-.03-11.32,3.4-16.3,3.43-4.98,9.32-8.13,17.66-9.41,2.93-.45,6.42-.68,10.48-.71,4.05-.02,7.12-.06,9.2-.14-1.39-5.86-3.78-11.23-7.18-16.1-3.4-4.86-7.39-9.45-11.95-13.78-4.57-4.32-8.79-8.04-12.67-11.17-4.35,14.46-9.08,26.65-14.21,36.59-5.13,9.94-10.97,19.54-17.52,28.81-3.25,4.75-7.13,7.51-11.64,8.29-3.61.62-6.8-.16-9.57-2.35-2.76-2.19-4.53-5.2-5.3-9.04-.9-4.51-.15-8.96,2.25-13.36,1.11-2.06,2.21-4.13,3.32-6.19,9.35-17.53,16.2-31.77,20.54-42.78,2.53-7.2,5.3-16.71,8.32-28.53,3.01-11.82,5.83-24.01,8.46-36.59,2.31-10.64,10.23-17.08,23.76-19.17,6.31-.97,10.82-1.06,13.53-.3,2.7.77,4.3,2.4,4.8,4.89.27,1.36.24,3.59-.08,6.67-.32,3.08-.98,6.22-1.97,9.4-2.45,8.77-3.11,15.99-1.99,21.66.67,3.4,2.6,6.97,5.77,10.7,3.17,3.73,7.85,8.3,14.02,13.72,9.1,8.5,16.17,15.87,21.21,22.05,5.04,6.19,8.35,13.28,9.92,21.23.45,2.28.85,5.49,1.21,9.64,10.2-5.81,20.9-19.01,32.11-39.58,2.08-3.53,4.81-5.52,8.19-5.94,2.93-.37,5.51.71,7.74,3.23,2.23,2.52,3.81,6.18,4.76,10.96,1.7,8.66.95,15.99-2.26,21.99-8.5,15.53-17.37,26.51-26.62,32.96-9.26,6.45-21.39,10.91-36.4,13.45-7.5,8.97-17.45,14.34-29.85,16.16-11.73,1.72-21.23.38-28.5-4.09Z"/>
        <path class="cls-2" d="M782.82,691.49c-14.04-6.38-26.12-16.54-36.22-30.48-10.11-13.93-17.13-30.95-21.08-51.05-6.81-34.72-5.8-67.68,3.06-98.9,8.85-31.21,25.84-57.37,50.97-78.48,25.12-21.12,57.75-33.87,97.9-38.63,10.37-1.23,21.64-1.77,33.79-1.66,12.15.12,23.39,1.13,33.71,3.04,6.67.99,10.73,5.11,12.16,12.39,1.17,5.92.07,11.78-3.3,17.6-3.36,5.82-7.98,9.12-13.84,9.88-1.81.24-3.18.3-4.13.19-12.27-1.22-22.69-1.95-31.28-2.18-8.59-.22-17.51.21-26.75,1.31-28.64,3.4-51.62,13.16-68.93,29.46-17.32,16.29-28.67,36.51-34.07,60.69-5.4,24.18-5.47,49.62-.23,76.35,3.81,19.42,10.53,34.02,20.17,43.8,9.64,9.78,20.55,13.99,32.73,12.61,13.75-1.56,24.7-8.65,32.83-21.27,8.13-12.62,13.97-32.22,17.52-58.78,3.55-26.56,5.19-62.25,4.93-107.03.1-6.54,1.95-11.2,5.56-13.97,3.61-2.77,8.8-4.56,15.56-5.4,16.01-1.97,25.05,2.23,27.11,12.7.36,1.83.47,4.14.33,6.96-1.52,22.84-2.07,47.95-1.65,75.32.42,27.38,1.99,48.01,4.73,61.9,2.42,12.29,5.98,21,10.69,26.1,4.7,5.11,10.78,7.16,18.22,6.15,7.21-.98,13.61-4.37,19.19-10.18,5.57-5.8,12.16-15.32,19.75-28.57,2.08-3.57,4.81-5.61,8.19-6.11,2.93-.44,5.51.58,7.74,3.04,2.23,2.47,3.81,6.08,4.75,10.84,1.75,8.84.99,16.19-2.26,22.06-8.41,15.06-17.21,26.86-26.42,35.42-9.21,8.56-21.48,13.91-36.81,15.96-15.79,2.11-29.44-.87-40.94-8.88-11.51-8.01-20.17-20.33-25.96-36.9-9.74,37.36-30.85,57.98-63.32,61.65-15.56,1.76-30.36-.56-44.4-6.94Z"/>
        <path class="cls-2" d="M1085.68,472.94c-3.4-.68-7.92-2.29-13.55-4.83-13.72-6.3-27.44-12.71-41.16-19.21-3.55,7.91-7.1,15.81-10.65,23.7-2.62,5.54-7.2,8.8-13.74,9.76-4.06.6-7.73-.09-11.02-2.07-3.29-1.98-5.34-5.01-6.14-9.1-1.03-5.22,1.41-14.56,7.34-28.02,3.7-8.24,7.69-14.48,11.96-18.74,4.26-4.25,9.33-6.82,15.19-7.72,3.83-.59,7.38-.55,10.65.1,3.27.66,7.74,2.4,13.42,5.22,13.72,6.42,27.44,12.74,41.16,18.95,3.55-7.98,7.1-15.98,10.64-23.98,2.62-5.61,7.2-9.02,13.74-10.24,4.06-.76,7.73-.23,11.02,1.58,3.29,1.82,5.33,4.75,6.14,8.79.63,3.15.26,6.9-1.09,11.25-1.36,4.35-3.44,10.07-6.24,17.15-3.71,8.42-7.7,14.84-11.96,19.25-4.27,4.42-9.33,7.16-15.19,8.21-3.61.65-7.11.63-10.51-.06ZM1011.07,661c-5.29-8.55-9.9-22.82-13.85-42.79-5.83-29.51-7.19-58.15-4.09-85.91.73-6.87,3.1-12.18,7.12-15.91,4.01-3.74,10.2-6.22,18.54-7.48,4.51-.68,7.77-.6,9.81.25,2.03.86,3.36,2.87,3.98,6.04.72,3.63.64,12.04-.23,25.25-.46,9.41-.7,17.62-.71,24.63,0,7.01.52,15.57,1.59,25.67,3.59-20.64,8.79-37.8,15.62-51.51,6.82-13.71,14.17-23.91,22.05-30.62,7.87-6.71,15.53-10.73,22.97-12.06,14.65-2.63,23.43,3.27,26.35,17.9,1.75,8.77,2.42,25.11,2.04,49-.39,20.39.05,33.74,1.3,40.04,1.79,9,5.95,12.87,12.49,11.58,4.51-.89,9.31-4.71,14.41-11.48,5.1-6.76,11.6-17.39,19.51-31.93,2.08-3.71,4.81-5.94,8.19-6.67,2.93-.64,5.51.19,7.74,2.5,2.23,2.31,3.81,5.81,4.75,10.5,1.79,8.94,1.03,16.36-2.26,22.23-7.32,14.02-15.79,26.03-25.43,35.99-9.63,9.97-21.55,16.37-35.75,19.12-11.5,2.22-20.84.49-28.02-5.09-7.19-5.59-12.03-14.72-14.54-27.36-1.25-6.31-1.92-17.88-1.99-34.68.11-14.73-.38-24.8-1.45-30.22-.72-3.61-2.32-5.2-4.8-4.77-2.93.51-6.3,4.99-10.09,13.45-3.8,8.46-7.23,19.36-10.28,32.71-3.06,13.35-4.91,27.19-5.56,41.54-.38,11.04-1.83,18.68-4.36,22.94-2.53,4.26-7.29,6.95-14.28,8.03-8.57,1.33-15.5-2.29-20.78-10.85Z"/>
        <path class="cls-2" d="M1334.6,498.77c2.16,2.36,3.69,5.73,4.58,10.12,2.15,10.53.16,17.84-5.97,21.87-12.58,8.85-26.91,15.99-42.99,21.26-.52,19.77-5.96,37.06-16.31,51.69-10.36,14.63-23.53,24.04-39.53,28.02-13.52,3.37-25.72,2.87-36.59-1.43-10.88-4.29-19.87-11.32-26.98-21.01-7.11-9.69-11.92-20.83-14.43-33.4-3.4-17.04-3.17-32.91.7-47.62,3.87-14.7,10.8-27,20.8-37.01,9.99-10.01,21.97-16.61,35.95-19.93,17.12-4.07,32.1-1.75,44.93,7.12,12.83,8.87,21.86,21.47,27.12,37.99,10.45-3.65,22.62-9.51,36.5-17.74,1.71-.99,3.24-1.7,4.6-2.12,2.92-.91,5.47-.18,7.63,2.17ZM1246.97,582.3c4.13-7.14,6-16.39,5.61-27.73-7.93-2.84-14.51-7.61-19.75-14.25-5.24-6.64-8.71-14.2-10.41-22.67-.72-3.56-1.09-7.21-1.14-10.94-.56.14-1.13.27-1.69.41-9.02,2.17-15.65,8.21-19.89,18.17-4.25,9.97-4.8,22.77-1.67,38.4,2.46,12.29,6.76,21.11,12.91,26.43,6.14,5.33,12.48,7.19,19.02,5.57,7.21-1.78,12.88-6.26,17.01-13.39Z"/>
        <path class="cls-2" d="M1387.46,585.23c-7.27-3.04-11.57-7.88-12.91-14.43-1.16-5.68-.03-11.32,3.4-16.95,3.43-5.63,9.31-9.9,17.64-12.9,2.92-1.05,6.42-2.03,10.47-2.94,4.05-.91,7.11-1.65,9.18-2.2-1.39-5.56-3.78-10.38-7.17-14.5-3.39-4.12-7.38-7.85-11.94-11.24-4.57-3.37-8.78-6.26-12.65-8.64-4.34,15.32-9.08,28.41-14.2,39.27-5.13,10.86-10.96,21.47-17.5,31.79-3.25,5.27-7.13,8.63-11.63,10.07-3.61,1.15-6.79.81-9.56-1.02-2.76-1.82-4.53-4.61-5.29-8.35-.89-4.4-.14-8.95,2.25-13.66,1.11-2.21,2.21-4.43,3.32-6.64,9.34-18.81,16.19-34.12,20.52-45.82,2.53-7.6,5.3-17.57,8.31-29.92,3.01-12.34,5.83-25.03,8.46-38.08,2.31-11.08,10.22-18.88,23.73-23.72,6.3-2.26,10.8-3.33,13.51-3.16,2.7.18,4.3,1.45,4.79,3.83.27,1.3.24,3.54-.08,6.69-.32,3.16-.98,6.45-1.97,9.85-2.44,9.32-3.1,16.7-1.99,22.13.67,3.26,2.59,6.41,5.76,9.43,3.17,3.02,7.83,6.53,14,10.46,9.08,6.32,16.14,11.86,21.18,16.72,5.03,4.87,8.33,11.05,9.9,18.59.45,2.16.85,5.26,1.2,9.33,10.18-8.64,20.87-25,32.05-49.12,2.08-4.19,4.8-7.04,8.18-8.55,2.92-1.31,5.5-1.08,7.73.71,2.22,1.79,3.81,4.92,4.75,9.4,1.7,8.11.94,15.71-2.26,22.79-8.48,18.4-17.34,32.23-26.57,41.5-9.24,9.27-21.35,17.28-36.34,23.77-7.49,10.95-17.42,18.86-29.8,23.53-11.71,4.41-21.2,5.02-28.46,1.99Z"/>
      </g>
      <g>
        <path class="cls-3" d="M289.53,690.92c2.23,2.24,3.81,5.71,4.75,10.38,1.75,8.68.99,16.11-2.26,22.29-9.62,18.06-19.74,31.64-30.36,40.8-10.62,9.16-24.27,16.07-40.94,20.99-11.72,3.46-22.82,5.35-33.31,5.66-10.49.31-23.41-.02-38.77-.77-13.95-.99-27.26-.94-39.91.11-7.32,24.54-22.47,41.14-45.43,50.71-12.61,5.27-23.25,6.94-31.93,4.85-8.68-2.09-13.91-7.32-15.7-15.86-2.19-10.44,1.28-21.61,10.4-33.34,9.12-11.71,22.46-21.43,40.02-28.72,1.46-.61,2.93-1.21,4.39-1.81-4.48-32.18-8.96-64.34-13.44-96.48-3.12-22.06-2.76-41.51,1.09-58.34,3.85-16.82,10.7-32.67,20.58-47.42,8.56-12.8,19.03-24,31.4-33.46,12.37-9.45,25.98-16.79,40.84-21.9,24.32-8.36,44.27-8.04,59.84.36,15.57,8.42,25.37,22.74,29.4,42.63,2.73,13.49,2.45,25.07-.82,34.76-3.28,9.69-9.31,15.77-18.09,18.35-6.31,1.86-11.57,1.86-15.77-.01-4.21-1.87-6.87-5.54-7.99-11.04-.4-1.98-.69-5.74-.86-11.3.1-6.57-.34-12.28-1.33-17.12-1.88-9.23-6.13-15.67-12.74-19.28-6.62-3.6-15.55-3.56-26.81.28-19.82,6.76-33.84,18.68-42.08,35.19-8.23,16.53-11.07,38.74-8.49,66.51,2.49,25.59,4.98,51.19,7.46,76.79,1.02,10.84,1.41,20.4,1.18,28.67,14.9-3.01,33.7-5.7,56.39-7.6,13.24-1.1,23.37-1.94,30.4-2.71,7.03-.77,13.13-1.9,18.31-3.43,13.06-3.87,23.83-9.17,32.31-16.05,8.47-6.88,15.92-16.16,22.33-27.88,2.08-3.81,4.81-6.15,8.18-7.02,2.93-.75,5.51,0,7.73,2.25Z"/>
        <path class="cls-3" d="M458.57,626.89c2.16,2.67,3.69,6.27,4.59,10.79,2.15,10.85.16,17.83-5.98,20.97-12.59,7.03-26.93,12.35-43.02,16.05-.52,19.72-5.96,36.43-16.32,50.22-10.36,13.81-23.54,22.33-39.54,25.74-13.52,2.88-25.72,2.24-36.6-2-10.88-4.24-19.87-11.05-26.97-20.5-7.11-9.45-11.91-20.36-14.42-32.81-3.4-16.88-3.17-32.77.7-47.67,3.87-14.89,10.8-27.52,20.79-37.78,9.99-10.26,21.97-17,35.95-20.13,17.12-3.83,32.11-.82,44.94,8.87,12.83,9.69,21.87,23.1,27.13,40.08,10.46-2.67,22.63-7.23,36.53-13.61,1.71-.76,3.25-1.26,4.6-1.49,2.93-.5,5.48.59,7.64,3.26ZM370.89,701.78c4.13-6.92,6-16.06,5.61-27.43-7.93-3.29-14.51-8.32-19.75-15.14-5.24-6.82-8.71-14.46-10.42-22.97-.72-3.58-1.09-7.23-1.14-10.96-.56.12-1.13.25-1.69.37-9.02,1.99-15.65,8.01-19.89,17.98-4.25,9.98-4.8,22.79-1.67,38.4,2.46,12.28,6.76,21.09,12.91,26.48,6.14,5.39,12.48,7.38,19.02,5.97,7.21-1.55,12.88-5.77,17.02-12.7Z"/>
        <path class="cls-3" d="M511.5,722.49c-7.28-4.51-11.59-10.14-12.93-16.94-1.16-5.89-.03-11.32,3.4-16.28,3.43-4.96,9.32-8.08,17.66-9.31,2.93-.43,6.42-.65,10.48-.66,4.05,0,7.12-.03,9.2-.09-1.39-5.87-3.79-11.25-7.18-16.13-3.4-4.88-7.39-9.49-11.95-13.84-4.57-4.34-8.79-8.09-12.67-11.24-4.35,14.44-9.09,26.6-14.21,36.51-5.13,9.91-10.97,19.47-17.52,28.71-3.25,4.73-7.13,7.47-11.64,8.22-3.61.6-6.8-.2-9.57-2.42-2.76-2.21-4.53-5.23-5.3-9.08-.9-4.51-.15-8.96,2.25-13.35,1.11-2.06,2.21-4.11,3.32-6.17,9.35-17.46,16.2-31.66,20.54-42.64,2.53-7.18,5.3-16.67,8.32-28.48,3.01-11.8,5.83-23.98,8.46-36.53,2.31-10.63,10.23-17.02,23.76-19.03,6.31-.94,10.82-1,13.53-.23,2.7.78,4.3,2.42,4.8,4.91.27,1.36.24,3.59-.08,6.67-.32,3.08-.98,6.21-1.97,9.39-2.45,8.76-3.11,15.98-1.99,21.65.67,3.4,2.6,6.98,5.77,10.73,3.17,3.75,7.85,8.34,14.02,13.79,9.1,8.54,16.17,15.94,21.21,22.15,5.04,6.22,8.35,13.31,9.92,21.27.45,2.28.85,5.49,1.21,9.65,10.2-5.77,20.9-18.92,32.11-39.46,2.08-3.53,4.81-5.5,8.19-5.91,2.93-.36,5.51.73,7.74,3.26,2.23,2.53,3.81,6.19,4.76,10.98,1.7,8.67.95,15.99-2.26,21.98-8.5,15.51-17.37,26.46-26.62,32.88-9.26,6.42-21.39,10.83-36.4,13.31-7.5,8.94-17.45,14.26-29.85,16.02-11.73,1.66-21.23.27-28.5-4.25Z"/>
        <path class="cls-3" d="M797.88,676.27c-14.04-6.37-26.12-16.53-36.22-30.47-10.11-13.94-17.14-30.95-21.08-51.06-6.81-34.72-5.8-67.69,3.06-98.9,8.85-31.21,25.84-57.36,50.97-78.48,25.12-21.13,57.75-33.92,97.9-38.79,10.37-1.26,21.64-1.84,33.79-1.76,12.15.08,23.39,1.05,33.71,2.92,6.67.97,10.73,5.07,12.16,12.34,1.17,5.91.07,11.78-3.3,17.61-3.36,5.84-7.98,9.15-13.84,9.94-1.81.24-3.18.31-4.13.2-12.26-1.17-22.7-1.87-31.28-2.07-8.59-.19-17.51.27-26.75,1.39-28.64,3.48-51.62,13.27-68.93,29.59-17.32,16.31-28.67,36.54-34.07,60.71-5.4,24.18-5.47,49.62-.23,76.35,3.81,19.42,10.53,34.02,20.17,43.79,9.64,9.77,20.55,13.97,32.73,12.57,13.75-1.58,24.7-8.69,32.83-21.33,8.13-12.63,13.97-32.25,17.52-58.83,3.55-26.57,5.19-62.26,4.93-107.05.1-6.54,1.95-11.21,5.56-13.99,3.61-2.78,8.8-4.59,15.56-5.44,16.01-2.03,25.05,2.14,27.11,12.61.36,1.82.47,4.14.33,6.96-1.52,22.85-2.07,47.96-1.65,75.33.42,27.38,1.99,48.01,4.73,61.88,2.42,12.29,5.98,20.97,10.69,26.06,4.7,5.09,10.78,7.11,18.22,6.07,7.21-1.01,13.61-4.43,19.19-10.27,5.57-5.83,12.15-15.38,19.75-28.67,2.08-3.58,4.81-5.63,8.19-6.16,2.93-.45,5.51.55,7.74,3,2.23,2.45,3.81,6.05,4.75,10.81,1.75,8.83.99,16.19-2.26,22.07-8.41,15.1-17.21,26.96-26.42,35.57-9.21,8.61-21.48,14.02-36.81,16.14-15.78,2.18-29.44-.75-40.94-8.72-11.51-7.97-20.17-20.26-25.96-36.82-9.74,37.39-30.85,58.07-63.32,61.79-15.56,1.78-30.36-.52-44.4-6.89Z"/>
        <path class="cls-3" d="M1100.75,456.55c-3.4-.66-7.92-2.24-13.55-4.74-13.72-6.21-27.44-12.53-41.16-18.95-3.55,7.93-7.1,15.85-10.65,23.76-2.62,5.55-7.2,8.84-13.74,9.84-4.06.62-7.73-.05-11.02-2.01-3.29-1.96-5.34-4.98-6.14-9.07-1.03-5.22,1.41-14.56,7.34-28.06,3.7-8.26,7.69-14.52,11.96-18.8,4.26-4.27,9.33-6.87,15.19-7.81,3.83-.61,7.38-.6,10.65.04,3.27.64,7.74,2.36,13.42,5.14,13.72,6.34,27.44,12.56,41.16,18.67,3.55-8.01,7.1-16.03,10.64-24.06,2.62-5.63,7.2-9.07,13.74-10.35,4.06-.79,7.73-.3,11.02,1.5,3.29,1.79,5.34,4.7,6.14,8.74.63,3.15.26,6.9-1.1,11.26-1.36,4.36-3.44,10.1-6.24,17.2-3.71,8.45-7.69,14.9-11.96,19.35-4.27,4.45-9.33,7.23-15.19,8.33-3.61.68-7.11.68-10.51.02ZM1026.13,645.08c-5.29-8.52-9.9-22.76-13.85-42.72-5.82-29.48-7.19-58.11-4.09-85.89.73-6.88,3.1-12.19,7.12-15.95,4.01-3.76,10.2-6.27,18.54-7.58,4.51-.71,7.77-.65,9.81.19,2.03.85,3.36,2.85,3.98,6.01.72,3.62.64,12.04-.23,25.25-.46,9.42-.7,17.63-.71,24.63,0,7.01.52,15.56,1.59,25.66,3.59-20.66,8.79-37.85,15.62-51.61,6.82-13.76,14.17-24,22.05-30.77,7.87-6.76,15.53-10.84,22.97-12.23,14.65-2.74,23.43,3.1,26.35,17.7,1.75,8.76,2.42,25.09,2.04,48.99-.39,20.39.05,33.74,1.3,40.03,1.79,8.98,5.95,12.83,12.49,11.48,4.51-.93,9.31-4.79,14.41-11.6,5.1-6.81,11.6-17.49,19.51-32.1,2.08-3.73,4.81-5.98,8.19-6.75,2.93-.67,5.51.14,7.74,2.43,2.23,2.29,3.81,5.77,4.75,10.46,1.79,8.92,1.04,16.35-2.26,22.25-7.32,14.09-15.79,26.18-25.43,36.23-9.63,10.05-21.55,16.56-35.75,19.42-11.5,2.31-20.84.66-28.02-4.88-7.19-5.53-12.03-14.63-14.54-27.26-1.25-6.31-1.92-17.86-1.99-34.67.1-14.73-.38-24.8-1.45-30.21-.71-3.6-2.32-5.18-4.8-4.74-2.93.53-6.3,5.03-10.09,13.52-3.8,8.49-7.23,19.41-10.28,32.77-3.06,13.37-4.91,27.22-5.56,41.57-.38,11.04-1.83,18.7-4.36,22.97-2.53,4.27-7.29,6.99-14.28,8.12-8.57,1.38-15.5-2.21-20.78-10.73Z"/>
        <path class="cls-3" d="M1349.66,479.94c2.16,2.33,3.69,5.68,4.58,10.06,2.15,10.5.16,17.84-5.97,21.95-12.58,9.01-26.9,16.32-42.99,21.78-.52,19.78-5.96,37.13-16.31,51.88-10.36,14.75-23.53,24.3-39.53,28.45-13.52,3.51-25.72,3.13-36.59-1.06-10.88-4.18-19.87-11.13-26.98-20.76-7.11-9.62-11.92-20.73-14.43-33.27-3.4-17.01-3.17-32.89.7-47.62,3.87-14.73,10.8-27.1,20.8-37.2,9.99-10.1,21.97-16.81,35.95-20.28,17.12-4.24,32.1-2.08,44.93,6.65,12.83,8.73,21.86,21.23,27.11,37.68,10.45-3.77,22.62-9.77,36.5-18.17,1.71-1.01,3.24-1.74,4.6-2.17,2.92-.94,5.47-.25,7.63,2.08ZM1262.03,564.48c4.13-7.18,6-16.45,5.61-27.79-7.93-2.76-14.51-7.45-19.75-14.04-5.24-6.58-8.71-14.11-10.41-22.57-.72-3.55-1.09-7.2-1.14-10.93-.56.14-1.13.28-1.69.43-9.02,2.26-15.65,8.36-19.89,18.37-4.25,10.01-4.8,22.81-1.67,38.42,2.46,12.26,6.76,21.04,12.91,26.31,6.14,5.27,12.48,7.06,19.02,5.38,7.21-1.85,12.88-6.39,17.01-13.57Z"/>
        <path class="cls-3" d="M1402.52,565.7c-7.27-2.94-11.57-7.72-12.91-14.25-1.16-5.66-.03-11.32,3.4-17,3.43-5.67,9.31-10.02,17.64-13.14,2.92-1.09,6.42-2.12,10.47-3.09,4.05-.97,7.11-1.75,9.18-2.33-1.39-5.53-3.78-10.33-7.17-14.4-3.39-4.07-7.38-7.75-11.94-11.07-4.57-3.31-8.78-6.14-12.65-8.47-4.34,15.38-9.08,28.54-14.2,39.46-5.13,10.93-10.96,21.61-17.5,32.01-3.25,5.31-7.13,8.72-11.63,10.21-3.6,1.19-6.79.89-9.56-.9-2.76-1.79-4.53-4.55-5.29-8.28-.89-4.39-.14-8.95,2.25-13.69,1.11-2.23,2.21-4.45,3.32-6.68,9.34-18.92,16.19-34.32,20.52-46.08,2.53-7.64,5.3-17.64,8.31-30.02,3.01-12.38,5.83-25.11,8.46-38.2,2.31-11.11,10.22-19.01,23.73-24.04,6.3-2.35,10.8-3.48,13.51-3.35,2.7.14,4.3,1.39,4.79,3.77.27,1.3.24,3.53-.08,6.69-.32,3.16-.98,6.46-1.97,9.88-2.44,9.36-3.1,16.74-1.99,22.16.67,3.25,2.59,6.37,5.76,9.35,3.17,2.98,7.83,6.42,14,10.26,9.08,6.19,16.14,11.62,21.18,16.41,5.03,4.79,8.34,10.93,9.9,18.44.45,2.15.85,5.25,1.2,9.31,10.18-8.8,20.87-25.32,32.05-49.62,2.08-4.22,4.8-7.11,8.18-8.68,2.92-1.36,5.5-1.17,7.73.59,2.22,1.76,3.81,4.86,4.75,9.33,1.7,8.08.94,15.69-2.26,22.83-8.48,18.53-17.34,32.51-26.57,41.92-9.24,9.41-21.35,17.62-36.34,24.33-7.49,11.06-17.42,19.12-29.8,23.96-11.71,4.58-21.2,5.32-28.46,2.38Z"/>
      </g>
      <g>
        <path class="cls-2" d="M518.56,204.95c-10.77,15.96-28.52,28.93-53.23,39.32,14.74,1.53,26.58,6.16,35.52,13.78,8.94,7.62,14.53,17.13,16.77,28.47,3.54,17.93,1.03,34.28-7.53,49.1-8.56,14.84-22.85,27.45-42.85,38.11-20.01,10.67-45.11,18.69-75.32,24.63-11.27,2.22-20.35,3.74-27.25,4.49,1.03,6.32-.74,11.59-5.29,15.83-4.56,4.24-10.89,7.24-19,9.04-8.11,1.81-14.05,1.31-17.81-1.56-3.76-2.87-6.11-7.8-7.04-14.82-4.24-31.7-6.87-65.35-7.88-100.97-1.02-35.61-.22-70.44,2.39-104.47.45-5.94,2.83-10.6,7.11-13.95,4.29-3.34,10.26-5.89,17.92-7.62,13.74-3.08,21.38-.7,22.9,6.91.63,3.14.67,6.87.12,11.19-2.37,18.72-3.49,43.67-3.37,74.82.12,31.16,1.65,60.55,4.59,88.19,11-1.4,19.88-2.73,26.64-4.09,31.55-6.28,53.81-14.83,66.76-26.52,12.95-11.66,18.02-24.55,15.19-38.8-1.97-9.95-7.86-17.62-17.65-22.95-9.8-5.32-24.69-6.58-44.65-3.49-4.56.64-7.93.12-10.14-1.55-2.21-1.67-3.76-4.75-4.65-9.25-1.3-6.51-1-12.06.9-16.64,1.9-4.58,6.43-7.69,13.6-9.29,15.91-3.49,29.92-8.45,42.04-14.98,12.11-6.52,21.11-14.25,27.01-23.26,5.89-9.01,7.81-18.71,5.75-29.12-2.6-13.12-11.07-22.46-25.42-27.86-14.35-5.38-34.83-5.74-61.42-.55-24.12,4.72-46.83,12.77-68.13,24.09-21.3,11.33-38.9,23.86-52.79,37.29-6.36,6.1-12.02,9.83-16.97,11.17-4.06,1.1-7.43.58-10.13-1.6-2.7-2.17-4.47-5.35-5.33-9.55-1.12-5.52-.9-10.61.66-15.26,1.56-4.64,6.33-10.77,14.31-18.32,16.78-15.77,37.28-29.83,61.54-41.83,24.25-12,49.68-20.62,76.28-25.82,40.79-7.96,72.6-6.01,95.4,4.62,22.8,10.67,36.44,27.53,40.92,50.22,3.81,19.3.33,36.89-10.45,52.83Z"/>
        <path class="cls-2" d="M566.3,357.03c-10.36-9.11-17.17-21.92-20.45-38.51-3.59-18.17-2.81-35.97,2.33-53.38,5.14-17.4,13.67-32.01,25.58-43.75,11.92-11.74,25.66-18.59,41.22-20.52,4.96-.62,8.48-.05,10.55,1.68,2.07,1.73,4.16,5.04,6.28,9.92,4.56-1.48,9.42-2.54,14.61-3.16,11.05-1.31,17.36,2.04,18.93,10.03.94,4.79,1.49,16.4,1.65,34.82-.04,26.85.96,45.41,2.98,55.68.67,3.42,2.06,6.06,4.15,7.92,2.09,1.86,4.5,2.63,7.2,2.32,4.28-.49,8.92-3.88,13.91-10.17,4.99-6.28,11.44-16.29,19.35-30.02,2.08-3.5,4.81-5.44,8.19-5.82,2.93-.33,5.51.79,7.74,3.34,2.23,2.55,3.82,6.23,4.76,11.03,1.79,9.14,1.04,16.46-2.26,21.96-6.96,12.68-14.85,23.6-23.65,32.76-8.81,9.16-18.06,14.29-27.75,15.4-7.44.86-14.77-.92-21.98-5.33-7.21-4.41-13.27-10.86-18.17-19.38-7.96,20.56-20.85,31.92-38.66,34.17-13.98,1.77-26.16-1.88-36.51-10.99ZM620.65,321.32c3.34-6.48,5.07-14.74,5.17-24.8.05-21.48.1-42.96.15-64.45-9.43,1.39-17.46,6.07-24.1,14.03-6.64,7.96-11.2,17.95-13.7,29.94-2.49,12-2.49,24.37.02,37.12,1.39,7.06,3.83,12.11,7.32,15.16,3.49,3.06,7.72,4.27,12.68,3.65,4.96-.62,9.11-4.17,12.46-10.65Z"/>
        <path class="cls-2" d="M705.77,160.97c-5.61-3.92-9.2-9.87-10.77-17.87-1.57-7.99.22-15.02,5.37-21.09,5.15-6.06,12.34-9.62,21.59-10.65,8.34-.93,15.51.37,21.51,3.91,5.99,3.54,9.73,9.08,11.21,16.62,1.79,9.14.28,16.72-4.53,22.73-4.81,6.02-12.07,9.56-21.76,10.64-9.47,1.05-17.01-.38-22.62-4.3ZM726.73,337.36c-8.72-9.76-14.77-23.32-18.18-40.68-2.02-10.28-3.31-23.61-3.88-40-.57-16.39-.19-31.78,1.14-46.17.59-7.53,2.32-12.87,5.16-15.99,2.84-3.12,7.99-5.1,15.43-5.93,11.5-1.28,18.02,1.97,19.54,9.73,1.12,5.71,1.57,19.2,1.37,40.46-.48,25.73.15,43.05,1.9,51.96,1.34,6.85,3.28,12.01,5.8,15.46,2.52,3.46,5.92,4.95,10.21,4.47,4.06-.45,8.57-3.86,13.54-10.25,4.97-6.38,11.32-16.31,19.05-29.78,2.08-3.5,4.81-5.44,8.19-5.82,2.93-.33,5.51.78,7.74,3.33,2.23,2.55,3.81,6.22,4.76,11.02,1.79,9.14,1.04,16.46-2.26,21.96-16.9,30.15-35.05,46.28-54.45,48.42-14.66,1.62-26.35-2.45-35.06-12.22Z"/>
        <path class="cls-2" d="M924.01,255.11c2.23,2.52,3.81,6.17,4.76,10.95,1.79,9.11,1.04,16.44-2.26,22-7.32,13.31-15.92,24.55-25.78,33.69-9.87,9.15-22.02,14.58-36.45,16.27-19.85,2.32-36.35-5.14-49.52-22.34-13.17-17.19-22.6-40.31-28.3-69.32-5.47-27.87-8.15-60.02-8.04-96.44.11-36.43,4.59-68.2,13.44-95.33,8.85-27.12,22.86-41.76,42.03-43.94,10.82-1.23,20.33,2.86,28.53,12.29,8.19,9.43,14.15,23.6,17.87,42.53,5.33,27.14,4.08,59.51-3.77,97.09-7.85,37.58-21.06,75.44-39.64,113.51,3.41,9.18,7.32,15.56,11.71,19.14,4.39,3.58,9.52,5.03,15.38,4.34,9.24-1.08,16.84-4.73,22.78-10.93,5.94-6.2,13.04-16.46,21.31-30.79,2.08-3.53,4.81-5.5,8.19-5.93,2.93-.37,5.51.71,7.74,3.22ZM821.1,75.82c-2.82,19.7-3.96,43.86-3.4,72.51.55,28.65,3.13,55.9,7.75,81.76,10.77-28.53,18.26-56.76,22.46-84.67,4.21-27.91,4.13-52.94-.21-75.08-3.41-17.34-8.27-25.66-14.58-24.94-5.19.59-9.19,10.73-12.01,30.42Z"/>
        <path class="cls-2" d="M915.38,316.07c-10.36-9.21-17.18-22.15-20.45-38.79-3.59-18.24-2.81-36.01,2.33-53.33,5.14-17.32,13.67-31.78,25.59-43.45,11.92-11.67,25.66-18.53,41.22-20.65,4.96-.68,8.48-.17,10.55,1.52,2.07,1.7,4.16,4.97,6.28,9.8,4.56-1.57,9.42-2.74,14.61-3.49,11.04-1.6,17.36,1.52,18.93,9.46.94,4.76,1.49,16.36,1.65,34.77-.03,26.86.96,45.38,2.98,55.58.67,3.4,2.06,5.99,4.15,7.77,2.09,1.78,4.49,2.46,7.2,2.04,4.28-.67,8.92-4.26,13.91-10.78,4.99-6.52,11.44-16.85,19.34-31.02,2.08-3.62,4.81-5.71,8.19-6.29,2.93-.5,5.51.45,7.74,2.87,2.23,2.41,3.81,5.99,4.75,10.73,1.79,9.03,1.04,16.4-2.26,22.11-6.96,13.13-14.84,24.52-23.64,34.15-8.8,9.63-18.06,15.21-27.75,16.72-7.44,1.16-14.77-.35-21.97-4.53-7.21-4.18-13.27-10.48-18.17-18.88-7.96,20.75-20.85,32.38-38.66,34.76-13.98,1.86-26.16-1.83-36.51-11.04ZM969.74,280.23c3.34-6.53,5.07-14.82,5.17-24.88.05-21.48.1-42.97.14-64.45-9.43,1.55-17.46,6.31-24.1,14.31-6.64,8.01-11.2,17.99-13.7,29.99-2.49,12-2.49,24.37.02,37.11,1.39,7.06,3.83,12.11,7.32,15.15,3.49,3.04,7.71,4.23,12.68,3.57,4.96-.67,9.11-4.27,12.46-10.8Z"/>
        <path class="cls-2" d="M1072.48,294.94c-5.29-8.43-9.9-22.6-13.84-42.5-5.82-29.39-7.19-58.01-4.09-85.83.73-6.89,3.1-12.24,7.12-16.07,4.01-3.82,10.19-6.44,18.54-7.9,4.51-.79,7.77-.78,9.8.02,2.03.81,3.36,2.79,3.98,5.94.72,3.61.64,12.03-.23,25.26-.46,9.43-.7,17.64-.71,24.65,0,7.01.52,15.55,1.59,25.63,3.59-20.73,8.79-38.02,15.61-51.9,6.82-13.89,14.17-24.28,22.05-31.2,7.87-6.92,15.53-11.16,22.97-12.71,14.65-3.05,23.43,2.57,26.34,17.11.58,2.91.98,10.18,1.19,21.81-.01,9.35.21,15.14.65,17.37,1.57,7.83,5.17,11.11,10.8,9.83,6.31-1.44,13.44-8.23,21.38-20.42,2.35-3.6,5.1-5.78,8.25-6.56,2.93-.72,5.5,0,7.7,2.13,2.21,2.14,3.73,5.32,4.58,9.54,1.66,8.23.7,15.24-2.86,21.04-5.01,8.03-11.28,15.36-18.82,21.95-7.53,6.59-16.03,10.97-25.5,13.1-11.95,2.69-21.62,1.61-29.03-3.14-7.41-4.75-12.14-12.31-14.2-22.64-.67-3.37-1.01-6.8-1-10.31-.45-4.58-.82-7.66-1.14-9.23-.72-3.59-2.32-5.14-4.79-4.64-3.38.68-7.08,5.32-11.1,13.93-4.02,8.61-7.51,19.61-10.45,33.01-2.95,13.41-4.74,27.29-5.39,41.65-.38,11.05-1.83,18.73-4.35,23.06-2.53,4.32-7.29,7.13-14.28,8.38-8.57,1.54-15.49-1.93-20.78-10.37Z"/>
      </g>
      <g>
        <path class="cls-3" d="M531.62,194.04c-10.77,15.91-28.52,28.8-53.23,39.06,14.74,1.61,26.58,6.3,35.52,13.96,8.94,7.67,14.53,17.2,16.77,28.54,3.54,17.94,1.03,34.29-7.53,49.07-8.56,14.8-22.85,27.34-42.85,37.89-20.01,10.56-45.11,18.44-75.32,24.17-11.27,2.14-20.35,3.6-27.25,4.3,1.03,6.33-.74,11.59-5.29,15.79-4.56,4.2-10.89,7.16-19,8.9-8.11,1.74-14.05,1.19-17.81-1.7-3.76-2.9-6.11-7.85-7.04-14.88-4.24-31.74-6.87-65.41-7.88-101.03-1.02-35.62-.22-70.44,2.39-104.45.45-5.94,2.83-10.58,7.11-13.89,4.28-3.3,10.26-5.81,17.92-7.47,13.74-2.97,21.38-.54,22.9,7.08.63,3.14.67,6.87.12,11.19-2.37,18.71-3.49,43.64-3.37,74.8.12,31.16,1.65,60.57,4.59,88.22,11-1.32,19.88-2.59,26.64-3.89,31.55-6.06,53.81-14.48,66.76-26.1,12.95-11.59,18.02-24.45,15.19-38.72-1.97-9.96-7.86-17.66-17.65-23.05-9.8-5.38-24.69-6.73-44.65-3.77-4.56.61-7.93.07-10.14-1.62-2.21-1.69-3.76-4.78-4.65-9.28-1.3-6.52-1-12.07.9-16.63,1.9-4.56,6.43-7.64,13.6-9.2,15.91-3.39,29.92-8.26,42.04-14.72,12.11-6.45,21.11-14.13,27.01-23.11,5.89-8.98,7.81-18.67,5.75-29.09-2.6-13.13-11.07-22.52-25.42-28-14.35-5.46-34.83-5.94-61.42-.93-24.12,4.55-46.83,12.44-68.13,23.59-21.3,11.15-38.9,23.53-52.79,36.83-6.36,6.04-12.02,9.72-16.97,11.02-4.06,1.06-7.43.51-10.13-1.7-2.7-2.19-4.47-5.39-5.33-9.6-1.12-5.53-.9-10.62.66-15.25,1.56-4.63,6.33-10.71,14.31-18.18,16.78-15.61,37.29-29.49,61.54-41.28,24.25-11.8,49.68-20.22,76.28-25.25,40.79-7.68,72.6-5.56,95.4,5.19,22.8,10.78,36.44,27.7,40.92,50.41,3.81,19.32.33,36.89-10.45,52.79Z"/>
        <path class="cls-3" d="M579.35,346.32c-10.36-9.15-17.17-21.99-20.45-38.59-3.59-18.19-2.81-35.98,2.33-53.37,5.14-17.38,13.67-31.96,25.58-43.66,11.92-11.7,25.66-18.5,41.22-20.39,4.96-.6,8.48-.03,10.55,1.7,2.07,1.74,4.16,5.05,6.28,9.93,4.56-1.47,9.42-2.52,14.61-3.12,11.05-1.29,17.36,2.08,18.93,10.06.94,4.79,1.49,16.41,1.65,34.83-.04,26.85.96,45.41,2.98,55.68.67,3.43,2.06,6.07,4.15,7.93,2.09,1.86,4.49,2.64,7.2,2.33,4.28-.49,8.92-3.86,13.91-10.15,4.99-6.28,11.44-16.28,19.35-30,2.08-3.5,4.81-5.44,8.19-5.81,2.93-.33,5.51.79,7.74,3.34,2.23,2.55,3.81,6.23,4.76,11.03,1.79,9.14,1.04,16.46-2.26,21.96-6.96,12.67-14.85,23.59-23.65,32.74-8.81,9.16-18.06,14.27-27.75,15.37-7.44.84-14.77-.94-21.98-5.36-7.21-4.42-13.27-10.89-18.17-19.42-7.96,20.55-20.85,31.87-38.66,34.07-13.99,1.73-26.15-1.96-36.51-11.11ZM633.71,310.78c3.34-6.47,5.07-14.73,5.17-24.78.05-21.48.1-42.96.15-64.45-9.43,1.36-17.46,6.02-24.1,13.96-6.64,7.94-11.2,17.92-13.7,29.9-2.49,11.99-2.49,24.36.02,37.12,1.39,7.06,3.83,12.12,7.32,15.19,3.49,3.07,7.72,4.29,12.68,3.68,4.96-.61,9.11-4.14,12.46-10.62Z"/>
        <path class="cls-3" d="M718.82,150.57c-5.61-3.93-9.2-9.88-10.77-17.88-1.57-7.99.22-15.02,5.37-21.08,5.15-6.06,12.34-9.61,21.59-10.63,8.34-.93,15.51.38,21.51,3.92,5.99,3.54,9.73,9.08,11.21,16.62,1.79,9.14.28,16.72-4.53,22.73-4.81,6.02-12.07,9.56-21.76,10.64-9.47,1.05-17.01-.39-22.62-4.31ZM739.79,326.98c-8.72-9.77-14.78-23.33-18.18-40.69-2.02-10.28-3.31-23.61-3.88-40.01-.57-16.39-.19-31.78,1.14-46.17.6-7.53,2.32-12.86,5.16-15.98,2.84-3.12,7.99-5.09,15.43-5.92,11.5-1.27,18.01,1.98,19.54,9.74,1.12,5.71,1.57,19.2,1.37,40.46-.48,25.73.15,43.05,1.9,51.96,1.34,6.85,3.27,12.01,5.8,15.46,2.52,3.46,5.92,4.95,10.21,4.47,4.06-.45,8.57-3.87,13.54-10.26,4.97-6.38,11.32-16.32,19.05-29.79,2.08-3.5,4.81-5.44,8.19-5.82,2.93-.33,5.51.78,7.74,3.33,2.23,2.55,3.81,6.22,4.76,11.01,1.79,9.13,1.04,16.46-2.26,21.96-16.9,30.17-35.05,46.31-54.45,48.46-14.66,1.62-26.35-2.45-35.06-12.23Z"/>
        <path class="cls-3" d="M937.07,244.47c2.23,2.51,3.81,6.15,4.76,10.93,1.79,9.1,1.04,16.44-2.26,22.01-7.32,13.33-15.92,24.6-25.78,33.76-9.87,9.18-22.02,14.64-36.45,16.36-19.85,2.36-36.35-5.08-49.52-22.26-13.17-17.18-22.6-40.29-28.3-69.3-5.47-27.87-8.15-60.02-8.04-96.44.11-36.43,4.59-68.2,13.44-95.33,8.85-27.13,22.86-41.77,42.03-43.98,10.82-1.25,20.33,2.83,28.53,12.24,8.2,9.41,14.15,23.57,17.87,42.49,5.33,27.13,4.08,59.5-3.77,97.1-7.85,37.6-21.06,75.49-39.64,113.58,3.41,9.18,7.32,15.55,11.71,19.12,4.39,3.57,9.52,5.01,15.38,4.31,9.24-1.1,16.84-4.77,22.78-10.98,5.93-6.21,13.04-16.49,21.31-30.85,2.08-3.53,4.81-5.51,8.19-5.95,2.93-.38,5.51.69,7.74,3.2ZM834.16,65.41c-2.82,19.7-3.96,43.87-3.4,72.52.55,28.65,3.13,55.9,7.75,81.75,10.77-28.54,18.25-56.78,22.46-84.71,4.21-27.92,4.13-52.94-.21-75.08-3.41-17.34-8.27-25.64-14.58-24.92-5.19.6-9.19,10.75-12.01,30.44Z"/>
        <path class="cls-3" d="M928.44,305.47c-10.36-9.18-17.18-22.1-20.45-38.73-3.59-18.23-2.81-36.01,2.33-53.34,5.14-17.33,13.67-31.82,25.59-43.53,11.92-11.71,25.66-18.61,41.22-20.8,4.96-.7,8.48-.2,10.55,1.48,2.07,1.69,4.16,4.95,6.28,9.77,4.56-1.59,9.42-2.78,14.61-3.55,11.04-1.65,17.36,1.44,18.93,9.37.94,4.76,1.49,16.35,1.65,34.76-.04,26.86.96,45.38,2.98,55.57.67,3.4,2.06,5.98,4.15,7.75,2.09,1.77,4.49,2.44,7.2,2,4.28-.69,8.92-4.3,13.91-10.85,4.99-6.55,11.44-16.91,19.34-31.13,2.08-3.63,4.81-5.74,8.19-6.34,2.93-.52,5.51.42,7.74,2.82,2.23,2.4,3.81,5.97,4.75,10.7,1.79,9.01,1.04,16.4-2.26,22.13-6.96,13.17-14.84,24.61-23.64,34.29-8.8,9.68-18.06,15.31-27.75,16.87-7.44,1.2-14.77-.28-21.97-4.42-7.21-4.15-13.27-10.42-18.17-18.8-7.96,20.79-20.85,32.47-38.66,34.91-13.98,1.91-26.15-1.74-36.51-10.92ZM982.79,269.43c3.34-6.54,5.07-14.84,5.17-24.9.05-21.48.1-42.97.15-64.45-9.42,1.59-17.46,6.38-24.1,14.4-6.64,8.03-11.2,18.03-13.7,30.04-2.49,12.01-2.49,24.38.02,37.11,1.39,7.05,3.83,12.1,7.32,15.12,3.49,3.03,7.72,4.21,12.68,3.52,4.96-.69,9.11-4.3,12.46-10.85Z"/>
        <path class="cls-3" d="M1085.53,283.64c-5.29-8.4-9.9-22.55-13.84-42.42-5.82-29.35-7.19-57.97-4.09-85.81.73-6.89,3.1-12.26,7.12-16.11,4.01-3.85,10.19-6.5,18.54-8,4.51-.81,7.77-.83,9.8-.04,2.03.8,3.36,2.77,3.98,5.92.72,3.6.64,12.03-.23,25.26-.46,9.43-.7,17.64-.71,24.65,0,7.01.52,15.55,1.59,25.62,3.59-20.75,8.79-38.07,15.61-52.01,6.82-13.93,14.17-24.37,22.05-31.36,7.87-6.98,15.53-11.27,22.97-12.87,14.65-3.16,23.43,2.39,26.34,16.91.58,2.91.98,10.17,1.19,21.8-.02,9.35.21,15.14.65,17.37,1.57,7.82,5.17,11.07,10.8,9.74,6.31-1.49,13.44-8.34,21.38-20.6,2.34-3.62,5.1-5.83,8.25-6.63,2.93-.74,5.5-.05,7.7,2.06,2.21,2.12,3.73,5.28,4.58,9.5,1.66,8.21.7,15.24-2.86,21.07-5.01,8.08-11.28,15.46-18.82,22.11-7.53,6.66-16.03,11.11-25.5,13.31-11.95,2.79-21.62,1.78-29.03-2.92-7.41-4.69-12.14-12.22-14.2-22.53-.67-3.36-1.01-6.79-1-10.3-.45-4.57-.82-7.65-1.14-9.22-.72-3.58-2.32-5.12-4.79-4.61-3.38.7-7.09,5.37-11.1,14.01-4.03,8.64-7.51,19.66-10.45,33.08-2.95,13.43-4.74,27.32-5.39,41.69-.38,11.05-1.83,18.74-4.35,23.08-2.53,4.34-7.29,7.18-14.28,8.48-8.57,1.59-15.5-1.84-20.78-10.24Z"/>
      </g>
      <g>
        <path class="cls-2" d="M323.34,534.04c-3.4.79-6.8,1.58-10.2,2.39-2.32-3.78-4.63-7.56-6.95-11.33-5.06,1.22-10.12,2.46-15.18,3.73-.66,4.49-1.31,8.99-1.97,13.48-3.4.85-6.8,1.72-10.2,2.59,2.55-17.16,5.11-34.31,7.66-51.46,3.4-.86,6.8-1.71,10.2-2.54,8.88,14.31,17.76,28.69,26.64,43.14ZM291.39,520.61c3.79-.95,7.59-1.88,11.38-2.8-2.98-4.98-5.97-9.94-8.95-14.9-.81,5.9-1.62,11.8-2.43,17.71Z"/>
        <path class="cls-2" d="M377.49,472.78c.52,2.61,1.04,5.23,1.56,7.84-5,1.01-9.99,2.04-14.99,3.09,2.64,13.22,5.28,26.45,7.93,39.69-2.93.6-5.86,1.22-8.79,1.83-2.64-13.22-5.28-26.44-7.93-39.65-5.22,1.12-10.43,2.26-15.65,3.42-.52-2.6-1.04-5.21-1.56-7.81,13.14-2.94,26.28-5.73,39.43-8.41Z"/>
        <path class="cls-2" d="M403.06,497.44c-.42.11-1.14.29-1.92.44-1.05.2-2.24.4-2.99.54,1.27,6.35,2.53,12.7,3.79,19.05-2.93.56-5.86,1.13-8.79,1.71-3.16-15.88-6.33-31.75-9.49-47.61,2.93-.59,5.86-1.17,8.79-1.74,9.18-1.82,23.67-4.29,26.46,9.78,1.31,6.59-1.07,11.71-7.44,14.74,5.3,6.11,10.6,12.23,15.9,18.38-3.35.61-6.69,1.22-10.04,1.84-4.76-5.72-9.51-11.43-14.27-17.13ZM398.89,490.02c7.81-1.51,12.17-3.03,11.03-8.73-1.13-5.7-5.78-5.61-13.59-4.09-.78.15-1.55.3-2.33.45.85,4.27,1.7,8.55,2.56,12.83.78-.15,1.55-.3,2.33-.45Z"/>
        <path class="cls-2" d="M474.71,504.58c-3.4.55-6.8,1.11-10.2,1.68-2.32-3.94-4.64-7.88-6.95-11.82-5.06.85-10.13,1.72-15.19,2.61-.66,4.44-1.31,8.89-1.97,13.33-3.4.6-6.8,1.2-10.2,1.81,2.55-16.96,5.11-33.9,7.66-50.85,3.4-.6,6.8-1.19,10.2-1.78,8.88,14.96,17.77,29.97,26.65,45.02ZM442.73,488.86c3.8-.66,7.59-1.32,11.39-1.96-2.98-5.19-5.97-10.38-8.96-15.56-.81,5.84-1.62,11.68-2.43,17.52Z"/>
        <path class="cls-2" d="M500.06,451.1c-1.4,16.71-2.79,33.41-4.19,50.12-3.47.54-6.94,1.08-10.4,1.63-7.84-15.25-15.67-30.47-23.51-45.65,3.16-.53,6.32-1.05,9.48-1.57,5.5,10.94,11,21.89,16.49,32.86,1-11.99,2-23.99,3-35.98,3.04-.48,6.08-.95,9.12-1.42Z"/>
        <path class="cls-2" d="M538.38,445.44c.52,2.64,1.04,5.29,1.57,7.93-7.81,1.11-15.62,2.24-23.43,3.4.76,3.85,1.52,7.7,2.28,11.56,7.12-1.05,14.24-2.08,21.36-3.09.52,2.64,1.04,5.29,1.57,7.93-7.12,1-14.24,2.03-21.36,3.08.84,4.25,1.68,8.5,2.52,12.75,7.81-1.15,15.62-2.26,23.43-3.35.52,2.64,1.04,5.29,1.57,7.94-10.74,1.5-21.48,3.04-32.22,4.64-3.17-16.02-6.33-32.04-9.5-48.05,10.74-1.63,21.48-3.2,32.22-4.73ZM522.33,445.31c-.1.01-.2,0-.34-.02-.38-.04-.81-.19-1.31-.49-.5-.3-.89-.58-1.22-.87-.33-.29-.66-.75-.98-1.38-.22-.41-.35-.76-.42-1.09-.03-.17-.03-.34-.03-.51,0-.17.07-.35.18-.47,2.55-3.17,5.1-6.35,7.64-9.51.22-.27.53-.42.89-.47.2-.03.4-.02.64,0,.48.07,1.02.23,1.55.49.53.26,1,.6,1.36.92.45.38.82.9,1.13,1.6.18.38.28.74.35,1.1.06.3.08.6.07.87-.01.44-.15.8-.4,1.08-2.91,2.83-5.81,5.67-8.72,8.5-.11.12-.23.2-.39.23Z"/>
        <path class="cls-2" d="M560.22,476.69c1.76,3.8,5.17,7.25,10.35,6.55,5.02-.67,7.09-3.69,6.37-7.34-1.25-6.36-8.9-6.23-16.74-8.7-4.85-1.55-9.87-3.74-11.27-10.82-1.77-8.99,5.19-14.39,13.29-15.49,7.55-1.02,14.41,2.69,17.39,8.08-2.88.95-5.75,1.91-8.63,2.88-1.45-2.22-3.58-3.46-7.19-2.98-3.61.49-6.68,2.17-5.87,6.27.91,4.63,9.98,5.3,15,6.88,6.28,1.95,11.47,4.88,13,12.7,1.76,8.95-4.59,15.3-13.78,16.53-9.09,1.21-17.47-3.51-20.45-11.94,2.84-.88,5.68-1.76,8.51-2.63Z"/>
        <path class="cls-2" d="M630.39,482.87c-5.11.62-10.22,1.25-15.33,1.88-3.17-16.1-6.33-32.19-9.5-48.28,5.11-.64,10.22-1.28,15.33-1.91,12.14-1.49,22.21,8.01,24.74,20.92,2.8,14.24-3.3,25.93-15.25,27.38ZM620.48,442.73c-1.52.19-3.04.37-4.56.56,2.13,10.8,4.25,21.6,6.37,32.41,1.52-.19,3.04-.37,4.56-.56,7.88-.96,11.51-8.26,9.49-18.55-1.75-8.89-7.99-14.84-15.87-13.87Z"/>
        <path class="cls-2" d="M679.57,427.6c.52,2.66,1.04,5.32,1.57,7.97-7.81.9-15.62,1.8-23.43,2.72.76,3.87,1.52,7.75,2.28,11.62,7.12-.83,14.24-1.66,21.37-2.48.52,2.66,1.04,5.32,1.57,7.97-7.12.82-14.24,1.64-21.37,2.47.84,4.27,1.68,8.55,2.52,12.82,7.81-.91,15.62-1.81,23.43-2.7.52,2.66,1.04,5.32,1.57,7.97-10.74,1.22-21.49,2.47-32.23,3.73-3.17-16.12-6.33-32.23-9.5-48.34,10.74-1.28,21.49-2.53,32.23-3.76Z"/>
      </g>
      <g>
        <path class="cls-1" d="M328.29,527.08c-3.4.78-6.8,1.56-10.2,2.36-2.32-3.79-4.63-7.57-6.95-11.35-5.06,1.2-10.12,2.43-15.18,3.68-.66,4.49-1.31,8.98-1.97,13.48-3.4.84-6.8,1.69-10.2,2.56,2.55-17.15,5.11-34.3,7.66-51.43,3.4-.85,6.8-1.68,10.2-2.51,8.88,14.34,17.76,28.75,26.64,43.22ZM296.34,513.55c3.79-.93,7.59-1.86,11.38-2.77-2.98-4.99-5.97-9.96-8.95-14.93-.81,5.9-1.62,11.8-2.43,17.7Z"/>
        <path class="cls-1" d="M382.44,465.98c.52,2.61,1.04,5.23,1.56,7.84-5,1-9.99,2.02-14.99,3.05,2.64,13.23,5.28,26.47,7.93,39.71-2.93.6-5.86,1.2-8.79,1.81-2.64-13.23-5.28-26.45-7.93-39.68-5.22,1.1-10.43,2.23-15.65,3.37-.52-2.6-1.04-5.21-1.56-7.81,13.14-2.9,26.28-5.66,39.43-8.29Z"/>
        <path class="cls-1" d="M408.01,490.71c-.42.11-1.13.28-1.92.43-1.05.2-2.24.39-2.99.54,1.26,6.35,2.53,12.71,3.79,19.06-2.93.55-5.86,1.12-8.79,1.68-3.16-15.88-6.33-31.76-9.49-47.63,2.93-.58,5.86-1.15,8.79-1.72,9.19-1.79,23.67-4.23,26.46,9.85,1.31,6.59-1.07,11.71-7.44,14.72,5.3,6.12,10.6,12.26,15.9,18.42-3.35.6-6.69,1.2-10.04,1.81-4.76-5.74-9.51-11.46-14.27-17.16ZM403.84,483.28c7.81-1.49,12.16-3,11.03-8.71-1.13-5.7-5.78-5.63-13.59-4.13-.78.15-1.55.3-2.33.45.85,4.28,1.7,8.55,2.56,12.83.78-.15,1.55-.3,2.33-.45Z"/>
        <path class="cls-1" d="M479.66,498.01c-3.4.55-6.8,1.1-10.2,1.66-2.32-3.95-4.64-7.89-6.95-11.83-5.06.84-10.13,1.7-15.19,2.58-.66,4.44-1.31,8.88-1.97,13.32-3.4.59-6.8,1.19-10.2,1.79,2.56-16.95,5.11-33.89,7.66-50.83,3.4-.59,6.8-1.18,10.2-1.76,8.88,14.98,17.77,30.01,26.65,45.08ZM447.69,482.22c3.79-.65,7.59-1.3,11.39-1.94-2.99-5.2-5.97-10.39-8.96-15.58-.81,5.84-1.62,11.67-2.43,17.51Z"/>
        <path class="cls-1" d="M505.01,444.58c-1.4,16.7-2.79,33.41-4.19,50.12-3.47.53-6.93,1.07-10.4,1.61-7.84-15.26-15.67-30.5-23.5-45.7,3.16-.52,6.32-1.04,9.48-1.55,5.5,10.95,11,21.92,16.49,32.9,1-11.99,2-23.99,3-35.98,3.04-.47,6.08-.94,9.12-1.4Z"/>
        <path class="cls-1" d="M543.34,438.98c.52,2.64,1.04,5.29,1.57,7.94-7.81,1.09-15.62,2.21-23.43,3.36.76,3.85,1.52,7.71,2.28,11.56,7.12-1.04,14.24-2.06,21.36-3.05.52,2.65,1.04,5.29,1.57,7.94-7.12.99-14.24,2.01-21.36,3.04.84,4.25,1.68,8.5,2.52,12.75,7.81-1.13,15.62-2.24,23.43-3.32.52,2.65,1.04,5.29,1.57,7.94-10.74,1.48-21.48,3.01-32.22,4.59-3.17-16.03-6.33-32.05-9.5-48.07,10.74-1.61,21.48-3.17,32.22-4.67ZM527.28,438.83c-.1.01-.2,0-.34-.02-.38-.05-.81-.19-1.31-.49-.5-.3-.89-.58-1.22-.88-.33-.29-.65-.75-.98-1.39-.22-.41-.35-.76-.42-1.09-.03-.17-.03-.34-.03-.51,0-.17.07-.35.18-.47,2.55-3.17,5.09-6.34,7.64-9.5.22-.27.53-.42.89-.47.2-.03.4-.02.64.01.49.07,1.02.23,1.55.49.52.26,1,.6,1.36.93.45.38.82.9,1.13,1.61.18.38.28.74.35,1.1.06.3.08.6.07.87-.01.44-.15.8-.4,1.08-2.91,2.83-5.81,5.66-8.72,8.49-.11.12-.23.2-.39.23Z"/>
        <path class="cls-1" d="M565.18,470.26c1.76,3.81,5.17,7.26,10.35,6.57,5.02-.66,7.09-3.68,6.37-7.33-1.25-6.36-8.9-6.24-16.74-8.72-4.85-1.56-9.87-3.75-11.27-10.83-1.77-9,5.19-14.38,13.29-15.47,7.55-1.01,14.41,2.71,17.39,8.1-2.88.95-5.75,1.91-8.63,2.86-1.45-2.22-3.58-3.47-7.19-2.99-3.61.48-6.68,2.16-5.87,6.26.91,4.63,9.98,5.31,15,6.9,6.28,1.96,11.47,4.89,13,12.71,1.76,8.95-4.59,15.3-13.78,16.51-9.09,1.2-17.47-3.54-20.45-11.96,2.84-.88,5.68-1.75,8.51-2.62Z"/>
        <path class="cls-1" d="M635.34,476.53c-5.11.62-10.22,1.24-15.33,1.87-3.17-16.1-6.33-32.2-9.5-48.29,5.11-.64,10.22-1.27,15.33-1.89,12.14-1.48,22.21,8.03,24.74,20.95,2.8,14.25-3.3,25.93-15.25,27.37ZM625.43,436.38c-1.52.19-3.04.37-4.56.56,2.12,10.8,4.25,21.61,6.37,32.41,1.52-.19,3.04-.37,4.56-.55,7.88-.95,11.52-8.25,9.49-18.54-1.75-8.9-7.99-14.84-15.87-13.88Z"/>
        <path class="cls-1" d="M684.52,421.3c.52,2.66,1.04,5.32,1.57,7.97-7.81.89-15.62,1.79-23.43,2.7.76,3.87,1.52,7.75,2.28,11.62,7.12-.83,14.24-1.65,21.37-2.46.52,2.66,1.04,5.32,1.57,7.97-7.12.81-14.24,1.63-21.37,2.46.84,4.27,1.68,8.55,2.52,12.82,7.81-.91,15.62-1.8,23.43-2.69.52,2.66,1.04,5.32,1.57,7.98-10.74,1.22-21.49,2.45-32.23,3.71-3.17-16.12-6.33-32.24-9.5-48.35,10.74-1.27,21.49-2.51,32.23-3.74Z"/>
      </g>
    </g>
  </g>
</svg>