<svg id="Group_44" data-name="Group 44" xmlns="http://www.w3.org/2000/svg" xmlns:xlink="http://www.w3.org/1999/xlink" width="1223.653" height="1020.421" viewBox="0 0 1223.653 1020.421">
  <defs>
    <clipPath id="clip-path">
      <rect id="Rectangle_21" data-name="Rectangle 21" width="1223.653" height="1020.421" fill="none"/>
    </clipPath>
  </defs>
  <g id="Group_43" data-name="Group 43" clip-path="url(#clip-path)">
    <path id="Path_22142" data-name="Path 22142" d="M341.705,302.667q10.981-3.2,13.815,10.715a24.768,24.768,0,0,1-.8,13.845,17.4,17.4,0,0,1-9.182,9.595q-28.322,14-55.405,28.093.276,3.956.572,7.913c2.389,43.466-3.384,77.686-17.324,102.315-13.94,24.6-34.379,40.107-61.318,45.487-17.881,3.553-32.587,1.523-44.118-5.723S149.287,497,146.59,483.27c-4.494-22.942,1.627-44.576,18.374-65.483,16.741-20.977,44.332-41.814,82.792-64.692q-1.291-23.388-2.593-46.776c-.159-5.345-.453-12.432-.871-21.305-4.827,28.855-13.79,51.593-26.909,67.927s-29.362,26.262-48.751,29.332c-18.533,2.926-33.772-1.045-45.711-11.486s-19.688-24.973-23.246-43.267a157.921,157.921,0,0,1-2.643-27.163q-.269-14.922.343-40.5.418-23.224.209-36.972A140.2,140.2,0,0,0,95.32,198.54c-2.055-10.6-7.072-15.562-15.044-15.079-6.251.373-13.009,3.912-20.3,10.541S45.564,210.583,38.6,223.841q-3.3,6.4-8.789,6.4c-3.021-.015-5.947-1.568-8.789-4.633a20.743,20.743,0,0,1-5.355-10.356c-1.329-6.977.189-14.761,4.559-23.42,15.98-31.069,38.728-46.816,68.245-48.876,13.138-.926,24.231,2.145,33.239,9.451s15.064,18.732,18.145,34.458a207.631,207.631,0,0,1,3.767,35.285q.433,18.252-.314,46.567-.672,16.9-.652,27.133a90.921,90.921,0,0,0,1.3,16.786c2.185,11.133,5.683,18.847,10.511,23.072s12.078,5.634,21.773,4.016q17.453-2.889,31.891-25.749,14.422-22.806,21.37-65.01,6.935-42.125,2.17-99.9-1.224-14.519,3.419-21.738c3.081-4.817,8.291-8.027,15.617-9.719,15.074-3.494,24.117,2.05,27.113,16.975a47.937,47.937,0,0,1,.9,6.161q2.777,49.359,4.663,89.182,1.381,23.836,2.553,49.065t2.618,51.061q22.3-12.474,47.458-25.067a22.168,22.168,0,0,1,5.688-2.314m-92.053,85.265c-48.542,29.81-70.246,55.535-65.115,81.727a22,22,0,0,0,8.64,14.089c4.564,3.3,10.3,4.32,17.184,2.951,29.955-5.992,43.088-38.7,39.415-96.443-.045-.776-.085-1.548-.124-2.324" transform="translate(60.459 463.655)" fill="#341c10"/>
    <path id="Path_22143" data-name="Path 22143" d="M235.3,190.413q3.2,2.941,4.539,9.54,2.568,12.556-2.16,21.564-9.07,18.2-28.442,37.5a110.254,110.254,0,0,1-44.257,27.342c-22.624,7.3-41.406,6.7-56.336-1.607s-24.525-23.057-28.76-44.019a95.9,95.9,0,0,1,1.12-43.481,87.943,87.943,0,0,1,19.951-37.529,77.723,77.723,0,0,1,35.4-22.509c12.5-3.887,23.251-3.474,32.274,1.334s14.786,13.372,17.314,25.754q4.427,21.723-8.391,42.56c-8.545,13.87-24.913,28.019-49.09,41.978,7.351,8.037,18.568,9.7,33.652,4.847q14.542-4.666,31.1-20.743a134.514,134.514,0,0,0,26.854-36.7q2.986-5.7,7.828-7.346a6.91,6.91,0,0,1,7.4,1.518m-115.583-.707q-5.479,16.117-1.563,35.414c.04.209.085.418.124.632,12.113-6.808,21.23-14.387,27.357-22.579s8.4-16.214,6.818-24q-1.217-5.987-5.355-8.545t-9.948-.742q-11.959,3.732-17.433,19.817" transform="translate(309.86 535.205)" fill="#341c10"/>
    <path id="Path_22144" data-name="Path 22144" d="M125.5,286.534q-14.848-10.078-19.528-33.045-5.136-25.157,2.225-51.643a124,124,0,0,1,24.45-46.9q17.087-20.432,39.38-28.113c4.733-1.632,8.1-1.846,10.083-.627s3.971,3.951,6,8.177a89.52,89.52,0,0,1,13.965-6.161q15.826-5.457,18.08,5.524,1.344,6.584,1.573,33.055-.06,38.646,2.837,52.768.963,4.71,3.966,6.7a7.456,7.456,0,0,0,6.878.662q6.136-2.105,13.293-12.775t18.493-32.985c1.986-3.8,4.593-6.256,7.823-7.341a6.915,6.915,0,0,1,7.4,1.553q3.2,2.956,4.544,9.565,2.568,12.578-2.16,21.549A201.605,201.605,0,0,1,262.2,242.988q-12.623,16.035-26.516,20.8a29.755,29.755,0,0,1-21-.338c-6.893-2.668-12.676-7.54-17.359-14.676q-11.421,32.167-36.947,40.958-20.036,6.89-34.881-3.2M177.439,241.2q4.793-10.4,4.942-24.883.075-30.927.144-61.86-13.5,4.994-23.022,18.513A81.6,81.6,0,0,0,146.409,204.5a89.3,89.3,0,0,0,.025,35.6q1.986,9.742,6.987,13.059t12.113.876q7.114-2.441,11.9-12.835" transform="translate(413.023 498.779)" fill="#341c10"/>
    <path id="Path_22145" data-name="Path 22145" d="M153.291,285.275q-7.577-10.884-13.223-38.529a263.045,263.045,0,0,1-3.9-81.652q1.045-10.108,6.8-16.587t17.717-10.5q6.457-2.157,9.366-1.443c1.941.473,3.21,2.19,3.807,5.126q1.023,5.039-.229,24.256-.657,13.654-.672,23.744a229.427,229.427,0,0,0,1.518,24.351q5.143-30.584,14.925-51.936t21.071-32.672q11.294-11.339,21.957-14.651c14-4.34,22.4.438,25.177,14.154q.836,4.113,1.135,20.827-.022,13.444.627,16.607,2.254,11.085,10.327,8.709,9.048-2.665,20.444-20.668c2.24-3.528,4.872-5.738,7.893-6.564a7.266,7.266,0,0,1,7.366,1.841q3.158,2.993,4.374,9.058,2.381,11.787-2.732,20.22a101.5,101.5,0,0,1-18,21.614,61.111,61.111,0,0,1-24.376,13.935c-11.421,3.374-20.673,3.185-27.745-.682s-11.606-10.605-13.576-20.29a48.535,48.535,0,0,1-.956-9.779q-.642-6.51-1.085-8.724-1.03-5.046-4.588-3.927-4.845,1.545-10.61,14.641t-9.993,32.951a248.459,248.459,0,0,0-5.156,40.649q-.537,15.968-4.165,22.689t-13.646,10.038q-12.28,4.076-19.857-6.808" transform="translate(535.341 450.287)" fill="#341c10"/>
    <path id="Path_22146" data-name="Path 22146" d="M227.823,268.9c-6.957-3.742-11.068-8.774-12.352-15.184a20.763,20.763,0,0,1,3.245-15.91c3.28-5.036,8.908-8.515,16.881-10.346a69.206,69.206,0,0,1,10.018-1.4c3.872-.294,6.808-.533,8.784-.732a41.574,41.574,0,0,0-6.858-14.98,76.706,76.706,0,0,0-11.421-12.4q-6.554-5.726-12.1-9.784a226.4,226.4,0,0,1-13.586,36.215,264.481,264.481,0,0,1-16.737,29.1q-4.666,7.256-11.123,8.968a10.486,10.486,0,0,1-9.147-1.4,12.557,12.557,0,0,1-5.061-8.187,19.485,19.485,0,0,1,2.155-13.019q1.583-3.12,3.17-6.241,13.407-26.486,19.633-42.839,3.635-10.682,7.953-28.078t8.092-35.787c2.2-10.391,9.774-17.229,22.7-20.225,6.027-1.4,10.341-1.787,12.924-1.239a5.34,5.34,0,0,1,4.584,4.365,24.548,24.548,0,0,1-.075,6.4,48.455,48.455,0,0,1-1.886,9.142q-3.509,12.862-1.9,20.907.955,4.83,5.509,9.889a125.512,125.512,0,0,0,13.392,12.3,197.944,197.944,0,0,1,20.265,20.056,43.467,43.467,0,0,1,9.471,19.941,91.147,91.147,0,0,1,1.155,9.2q14.609-8.951,30.676-38.9c1.991-3.414,4.593-5.365,7.828-5.813a8,8,0,0,1,7.4,3.036q3.2,3.613,4.544,10.5,2.441,12.467-2.16,21.1-12.183,22.395-25.436,31.985c-8.844,6.41-20.439,11.053-34.782,14.188-7.166,8.953-16.672,14.621-28.521,17.14-11.2,2.384-20.285,1.782-27.232-1.971" transform="translate(668.136 418.314)" fill="#341c10"/>
    <path id="Path_22147" data-name="Path 22147" d="M93.445,340.709c-8.834-.861-15.209-3.17-19.125-6.738s-6.435-9.406-7.54-17.478q-4.1-33.279-5.031-82.18t2.349-94.2q.657-8.391,6.8-11.72c4.1-2.24,9.8-3.389,17.135-3.543,13.138-.3,20.439,3.076,21.892,10.63a34.268,34.268,0,0,1,.119,10.745q-3.27,27.046-3.036,72.2t4.509,85.947a173.393,173.393,0,0,0,22.166-.448c37.7-3.046,63.607-19.135,77.711-45.1,14.094-26.068,17.359-58.411,9.784-96.707-5.091-25.789-16.358-44.417-33.792-56.55S147.88,88.775,121.165,90.5A183.1,183.1,0,0,0,71.548,100.51C55.707,106.109,41.877,113,30.057,121.5a12,12,0,0,1-8.47,2.473c-3.668-.254-6.883-2.14-9.655-5.619a27.691,27.691,0,0,1-5.509-12.417q-1.545-8.212.045-13.263a17.984,17.984,0,0,1,6.9-8.968C26.22,74.238,42.141,67.191,61.127,61.975A273.2,273.2,0,0,1,117.4,52.43c26.287-1.563,49.926.562,70.917,7.146s38.42,17.443,52.27,33.169,23.261,35.877,28.223,60.79q9.7,48.619-2.468,89.048a134.375,134.375,0,0,1-45.357,67.364c-22.121,17.677-50.309,28.88-84.564,31.716a227.293,227.293,0,0,1-42.978-.956" transform="translate(22.506 206.551)" fill="#341c10"/>
    <path id="Path_22148" data-name="Path 22148" d="M86.312,226.321c-9.9-7.555-16.408-19.2-19.528-34.8a107.559,107.559,0,0,1,2.23-51.429A111.918,111.918,0,0,1,93.458,95.326Q110.538,76.275,132.844,70c4.733-1.339,8.1-1.364,10.073-.035s3.976,4.165,6,8.5A86.436,86.436,0,0,1,162.878,73c10.556-3.17,16.587-1.12,18.085,6.256q1.351,6.644,1.573,33.11-.052,38.646,2.842,52.867.963,4.74,3.961,6.833a7.541,7.541,0,0,0,6.883.866q6.136-1.926,13.288-12.447T228,127.8q2.971-5.673,7.823-7.261a6.974,6.974,0,0,1,7.4,1.593c2.13,1.991,3.643,5.171,4.544,9.585q2.561,12.586-2.16,21.539a196.27,196.27,0,0,1-22.594,36.3q-12.616,15.856-26.516,20.235a29.409,29.409,0,0,1-21-1.045q-10.339-4.4-17.359-15.428c-7.614,21.071-19.927,34.115-36.942,38.838-13.362,3.7-24.988,1.722-34.886-5.838m51.937-41.63q4.793-10.108,4.942-24.6.075-30.927.144-61.855-13.5,4.248-23.022,17.095-9.518,12.885-13.089,30.616a89.129,89.129,0,0,0,.02,35.6q1.986,9.891,6.987,13.561,5,3.688,12.113,1.692,7.114-1.978,11.9-12.108" transform="translate(257.168 274.336)" fill="#341c10"/>
    <path id="Path_22149" data-name="Path 22149" d="M114.1,230.542q-7.577-10.936-13.223-38.674a263.662,263.662,0,0,1-3.9-81.717q1.045-10.07,6.8-16.483t17.717-10.346q6.457-2.142,9.371-1.433c1.936.483,3.2,2.18,3.8,5.116q1.03,5.024-.224,24.261-.664,13.654-.677,23.744a230.59,230.59,0,0,0,1.518,24.351q5.143-30.607,14.93-52.051t21.071-33.015q11.287-11.578,21.952-15.248,21-7.219,25.177,13.158,2.508,12.25,1.946,46.7-.56,29.427,1.244,38.206,2.568,12.541,11.939,9.316,6.465-2.24,13.775-12.984t18.653-33.125q2.978-5.718,7.823-7.38a6.9,6.9,0,0,1,7.4,1.5q3.188,2.941,4.539,9.535,2.575,12.564-2.16,21.564a178.3,178.3,0,0,1-24.306,37.549,77.293,77.293,0,0,1-34.175,23.206q-16.483,5.7-26.779-.677t-13.895-23.948q-1.792-8.786-1.9-32.946.157-21.208-1.379-28.75-1.03-5.024-4.584-3.807-4.21,1.433-9.645,14.547t-9.834,33.065a239.563,239.563,0,0,0-5.315,40.769q-.545,15.975-4.165,22.733T133.956,237.4q-12.28,4.106-19.857-6.858" transform="translate(379.487 227.292)" fill="#341c10"/>
    <path id="Path_22150" data-name="Path 22150" d="M156,200.739q-21.186-11.407-27.023-39.943-5.2-25.426,1.224-48.129,6.427-22.686,20.788-38.709,14.363-16,32.463-22.106,17.774-5.987,29.716,1.025,11.952,6.987,15.224,23.072,2.695,13.243-1.423,24.316t-13.815,14.258q-6.136,2.023-10.431.423t-5.325-6.629a23.681,23.681,0,0,1-.378-5.245c.045-2.04.09-3.5.134-4.409a28.939,28.939,0,0,0-.184-9.351c-.552-2.717-1.682-4.589-3.379-5.589s-3.847-1.06-6.43-.194q-7.435,2.486-12.581,11.123T167.8,115.593A76.593,76.593,0,0,0,168.87,141.1c4.967,24.306,18.324,32.732,40.092,25.53q13.243-4.367,26.834-17.986t24.918-35.618c1.986-3.742,4.593-6.136,7.828-7.132a7.039,7.039,0,0,1,7.4,1.762q3.188,3.053,4.544,9.7,2.441,12.026-2.16,21.484a127.367,127.367,0,0,1-30.611,39.589q-19.155,16.654-38.863,23.176c-21.116,6.977-38.733,6.748-52.842-.866" transform="translate(503.667 195.249)" fill="#341c10"/>
    <path id="Path_22151" data-name="Path 22151" d="M160.54,81.375q-8.04-4.016-10.287-15.039-2.247-11.041,5.131-21.285c4.917-6.823,11.795-11.63,20.628-14.363q11.951-3.7,20.549-.209t10.7,13.955q2.568,12.683-4.32,22.609c-4.6,6.629-11.536,11.317-20.792,14.159-9.048,2.772-16.254,2.852-21.614.174m20.011,165.26q-12.489-11.608-17.368-35.583-2.882-14.206-3.7-37.634a358.479,358.479,0,0,1,1.09-44.516q.858-11.026,4.932-16.333c2.717-3.543,7.629-6.43,14.741-8.615,10.989-3.369,17.214-1.4,18.667,5.773q1.6,7.913,1.309,38.574-.694,37.168,1.807,49.518,1.926,9.51,5.539,13.815c2.409,2.877,5.658,3.708,9.754,2.533q5.815-1.68,12.939-12.088,7.114-10.391,18.195-31.567c1.986-3.663,4.593-5.942,7.823-6.8a7.23,7.23,0,0,1,7.4,2.085q3.187,3.2,4.539,9.909,2.568,12.773-2.16,21.385-24.224,46.917-52.016,54.977c-14.009,4.076-25.172,2.314-33.493-5.435" transform="translate(595.421 114.487)" fill="#341c10"/>
    <path id="Path_22152" data-name="Path 22152" d="M186.181,199.8q-7.584-11.414-13.228-39.435a265.543,265.543,0,0,1-3.9-81.9q1.052-10.033,6.8-16.149c3.837-4.051,9.744-7.176,17.722-9.252q6.457-1.68,9.366-.727t3.807,5.425q1.023,5.114-.229,24.241-.657,13.6-.672,23.684a232.607,232.607,0,0,0,1.518,24.475q5.143-30.174,14.925-50.692,9.779-20.491,21.071-30.756T265.32,36.272c14-2.867,22.4,2.9,25.177,16.936q2.508,12.638,1.946,47.01-.56,29.337,1.239,38.41c1.712,8.649,5.693,12.4,11.944,11.352q6.457-1.1,13.775-10.466t18.648-29.432c1.991-3.4,4.594-5.32,7.828-5.733a8.1,8.1,0,0,1,7.4,3.11q3.2,3.643,4.544,10.555,2.568,13.138-2.16,21.076a136.346,136.346,0,0,1-24.311,32.4c-9.207,8.938-20.6,14.507-34.17,16.906-10.988,1.946-19.917.388-26.779-4.842s-11.5-13.805-13.895-25.844q-1.8-9.018-1.891-33.184.149-21.2-1.389-28.929-1.03-5.151-4.579-4.374-4.21.918-9.645,13.407t-9.834,32a230.607,230.607,0,0,0-5.32,40.226q-.53,15.923-4.16,22.33c-2.419,4.29-6.972,7.226-13.646,8.913-8.192,2.065-14.806-.677-19.857-8.3" transform="translate(666.118 141.395)" fill="#341c10"/>
    <path id="Path_22153" data-name="Path 22153" d="M374.635,118.714a26.594,26.594,0,0,1,4.444,10.909q1.478,7.846.05,12.1a14.887,14.887,0,0,1-5.634,7.311c-16.045,11.889-27.785,21.24-35.2,27.357q-8.958,7.054-17.916,14.338.993,69.522-11.262,109.487c-8.177,26.72-22.5,40.361-42.969,41.869-10.989.821-20.6-1.777-28.845-7.948s-13.452-14.746-15.637-25.894c-3.041-15.512-.279-32.965,8.306-52.23,8.575-19.2,26.9-43.849,54.992-71.992q-.284-6.532-.562-13.069a31.621,31.621,0,0,1-11.715,14.636A34.779,34.779,0,0,1,256,191.737c-13.357,1.155-24.988-2.573-34.881-11.416-9.9-8.824-16.408-21.081-19.533-36.982a106.32,106.32,0,0,1,2.235-51.215c4.9-16.712,13.054-30.751,24.445-41.834s24.515-17.284,39.38-18.374c4.738-.348,8.1.413,10.078,2.185s3.976,5.086,6,9.9a60.125,60.125,0,0,1,13.965-1.956c5.385-.194,9.371.552,11.954,2.185s4.345,4.907,5.285,9.824a50.729,50.729,0,0,1,.9,6.37q.694,10.414,2,52.723.239,8.047.622,17.622t.816,20.32a380.727,380.727,0,0,1,41.023-34.752,11.236,11.236,0,0,1,6.918-2.309c2.8.164,5.28,1.737,7.43,4.683M273.574,147.066q4.994-9.727,4.559-27.163-.321-28.7-.637-57.4c-8.794.756-16.3,4.877-22.539,12.253s-10.546,16.831-12.929,28.277a89.315,89.315,0,0,0,.02,35.6q1.993,10.2,6.992,14.761a15.366,15.366,0,0,0,12.113,3.981c4.952-.393,9.1-3.817,12.422-10.312m4.31,141.492q6.33-20.536,7.286-64.567c-13.761,15.492-23.176,29.611-28.228,41.908s-6.728,22.888-5.016,31.682a20.274,20.274,0,0,0,3.9,9.057,8.418,8.418,0,0,0,7.654,3.071q8.077-.635,14.407-21.151" transform="translate(793.25 126.591)" fill="#341c10"/>
    <path id="Path_22154" data-name="Path 22154" d="M128.191,108.253q1.03,5.054,2.055,10.113-9.839,3.016-19.678,5.937,5.2,25.665,10.4,51.3-5.763,1.747-11.536,3.454-5.2-25.665-10.4-51.359-10.264,2.986-20.534,5.857-1.023-5.084-2.05-10.167,25.866-7.2,51.742-15.134" transform="translate(304.012 430.486)" fill="#341c10"/>
    <path id="Path_22155" data-name="Path 22155" d="M100.016,115.339q2.531,12.452,5.066,24.9,10.436-3.3,20.877-6.679-2.531-12.429-5.066-24.858,5.815-1.874,11.626-3.762,6.226,30.547,12.457,61.074-5.815,1.919-11.626,3.812-2.672-13.094-5.34-26.192-10.436,3.389-20.877,6.7,2.672,13.116,5.335,26.227-5.763,1.836-11.536,3.653-6.226-30.621-12.452-61.278,5.763-1.784,11.536-3.593" transform="translate(351.856 417.304)" fill="#341c10"/>
    <path id="Path_22156" data-name="Path 22156" d="M124.79,141.4c-.547.229-1.488.592-2.518.936-1.383.463-2.941.941-3.932,1.269q2.493,12.19,4.977,24.381-5.77,1.926-11.536,3.847-6.226-30.509-12.452-61.039,5.77-1.9,11.536-3.812c12.053-4,31.054-10.1,34.727,7.843,1.722,8.406-1.408,15.647-9.774,20.892q10.436,10.511,20.862,20.977-6.584,2.247-13.173,4.479Q134.146,151.3,124.79,141.4m-5.469-9c10.242-3.414,15.965-6.315,14.477-13.586s-7.584-6.261-17.831-2.837l-3.056,1.015q1.68,8.219,3.354,16.428c1.015-.338,2.035-.682,3.056-1.02" transform="translate(394.998 408.241)" fill="#341c10"/>
    <path id="Path_22157" data-name="Path 22157" d="M131.747,100.012c19.374-6.664,30.009,8.361,32.926,22.614,2.882,14.089-.6,34-19.976,40.684-19.324,6.664-30.049-8.4-32.931-22.485-2.921-14.263.652-34.175,19.981-40.814m2.055,10.033c-10.934,3.762-11.969,16.279-9.854,26.61,2.08,10.162,7.764,20.384,18.7,16.622,10.979-3.787,11.964-16.3,9.889-26.461-2.115-10.322-7.754-20.544-18.732-16.771" transform="translate(440.878 391.239)" fill="#341c10"/>
    <path id="Path_22158" data-name="Path 22158" d="M129.559,145.275q-3.718-18.185-7.44-36.365,5.77-1.993,11.536-3.981,3.725,18.177,7.44,36.369c1.563,7.6,5.887,15.02,14.193,12.163,8.351-2.871,9.282-12.088,7.724-19.7q-3.725-18.192-7.44-36.374,5.763-1.986,11.531-3.956,3.725,18.192,7.445,36.389c3.11,15.229-2.523,28.636-17.2,33.677-14.636,5.021-24.669-3-27.785-18.22" transform="translate(485.627 371.532)" fill="#341c10"/>
    <path id="Path_22159" data-name="Path 22159" d="M134.818,131.566c-2.891-14.134.941-33.239,20.618-39.868,8.739-2.946,17.612-.931,22.728,5.713q-5.181,3.635-10.371,7.291c-1.538-2.807-7.769-3.8-10.3-2.956-10.117,3.409-12.432,16.184-10.491,25.69,2.17,10.635,9.316,21.509,19.349,18.155,10.63-3.548,10.929-13.337,9.739-19.17q-6.524,2.165-13.044,4.345-1.023-5.024-2.05-10.053,12.5-4.188,25.013-8.3.627,3.061,1.249,6.126c2.737,13.427-.229,30.835-18.871,37.026-19.593,6.539-30.447-8.719-33.568-24" transform="translate(532.717 359.398)" fill="#341c10"/>
    <path id="Path_22160" data-name="Path 22160" d="M156.993,96.11q2.531,12.429,5.066,24.858,10.436-3.352,20.877-6.624-2.531-12.459-5.066-24.9,5.815-1.829,11.625-3.638,6.226,30.644,12.452,61.323-5.808,1.777-11.62,3.578-2.672-13.138-5.34-26.262-10.436,3.262-20.877,6.609,2.665,13.109,5.335,26.217-5.763,1.844-11.536,3.7-6.226-30.569-12.452-61.113,5.763-1.881,11.536-3.747" transform="translate(578.434 341.21)" fill="#341c10"/>
    <path id="Path_22161" data-name="Path 22161" d="M213.062,80.775q1.03,5.1,2.055,10.207-9.839,2.575-19.678,5.28,5.2,25.777,10.4,51.588-5.77,1.553-11.536,3.14-5.2-25.777-10.4-51.514-10.264,2.882-20.534,5.9-1.03-5.061-2.055-10.133,25.874-7.614,51.747-14.467" transform="translate(641.496 321.215)" fill="#341c10"/>
    <path id="Path_22162" data-name="Path 22162" d="M184.884,85.95q2.531,12.616,5.066,25.232,10.436-2.575,20.877-4.987-2.531-12.661-5.061-25.311c3.872-.916,7.749-1.8,11.621-2.682q6.226,31.166,12.457,62.407-5.815,1.254-11.625,2.563-2.665-13.37-5.335-26.715-10.444,2.411-20.882,4.962,2.665,13.318,5.335,26.625-5.763,1.4-11.536,2.837-6.226-31.025-12.452-61.994,5.763-1.493,11.536-2.936" transform="translate(689.347 310.979)" fill="#341c10"/>
    <path id="Path_22163" data-name="Path 22163" d="M226.471,76.059q1.03,5.181,2.055,10.371-15.37,2.755-30.741,5.937,1.493,7.517,2.991,15.049,14.019-2.867,28.029-5.375,1.03,5.188,2.05,10.376-14.012,2.478-28.024,5.32,1.65,8.3,3.3,16.607,15.37-3.061,30.741-5.7,1.023,5.2,2.05,10.391-21.133,3.576-42.277,7.983-6.226-31.286-12.452-62.5,21.141-4.606,42.277-8.455" transform="translate(732.478 302.461)" fill="#341c10"/>
    <path id="Path_22164" data-name="Path 22164" d="M343.831,298.13q10.988-3.255,13.815,10.645a24.78,24.78,0,0,1-.791,13.845,17.523,17.523,0,0,1-9.187,9.645q-28.315,14.154-55.41,28.437.291,3.956.577,7.913c2.394,43.456-3.379,77.7-17.324,102.44-13.945,24.7-34.384,40.381-61.317,45.994-17.886,3.728-32.587,1.841-44.123-5.29s-18.653-17.7-21.35-31.408c-4.494-22.888,1.627-44.591,18.369-65.682,16.742-21.146,44.342-42.267,82.8-65.463q-1.3-23.38-2.593-46.756-.254-8-.876-21.3c-4.822,28.895-13.79,51.7-26.9,68.155s-29.372,26.536-48.761,29.805c-18.533,3.125-33.762-.677-45.706-10.974s-19.688-24.749-23.241-42.988a157.384,157.384,0,0,1-2.648-27.133q-.276-14.922.338-40.505.418-23.224.209-36.977a139.288,139.288,0,0,0-2.259-24.316c-2.055-10.57-7.072-15.472-15.039-14.89q-9.376.687-20.31,10.8T40.737,222.275q-3.314,6.457-8.8,6.514-4.531.045-8.784-4.5A20.444,20.444,0,0,1,17.8,214.009c-1.324-6.962.194-14.771,4.554-23.485,15.985-31.308,38.733-47.368,68.255-49.8,13.138-1.09,24.221,1.841,33.234,9.043s15.069,18.553,18.15,34.249a208.348,208.348,0,0,1,3.767,35.24q.426,18.252-.318,46.577-.664,16.893-.652,27.138A91.084,91.084,0,0,0,146.1,309.74c2.18,11.1,5.683,18.787,10.5,22.957s12.078,5.494,21.773,3.792q17.453-3.076,31.89-26.063c9.625-15.293,16.746-37.076,21.375-65.2s5.345-61.442,2.165-99.922q-1.209-14.5,3.419-21.768c3.09-4.842,8.291-8.1,15.617-9.844,15.079-3.618,24.122,1.861,27.118,16.766a45.638,45.638,0,0,1,.9,6.151q2.784,49.329,4.668,89.147,1.389,23.836,2.553,49.045,1.157,25.239,2.613,51.041Q313,313.229,338.148,300.484a22.37,22.37,0,0,1,5.683-2.354m-92.048,85.9c-48.547,30.2-70.246,56.2-65.11,82.319a21.663,21.663,0,0,0,8.639,14q6.838,4.9,17.179,2.792c29.95-6.28,43.088-39.067,39.415-96.791-.04-.771-.085-1.543-.124-2.319" transform="translate(68.944 447.843)" fill="#efe9d3"/>
    <path id="Path_22165" data-name="Path 22165" d="M237.437,186.04q3.188,2.941,4.539,9.535,2.568,12.556-2.16,21.564-9.07,18.215-28.442,37.554a110.835,110.835,0,0,1-44.258,27.471c-22.624,7.375-41.406,6.868-56.336-1.364s-24.525-22.923-28.76-43.864a95.935,95.935,0,0,1,1.12-43.486,88.509,88.509,0,0,1,19.947-37.639,78.2,78.2,0,0,1,35.4-22.674q18.737-5.927,32.269,1.2,13.527,7.159,17.314,25.7,4.434,21.7-8.386,42.58c-8.545,13.89-24.913,28.1-49.09,42.172,7.351,8,18.568,9.61,33.652,4.708q14.542-4.725,31.1-20.837A135.357,135.357,0,0,0,222.209,191.9q2.986-5.7,7.828-7.365a6.914,6.914,0,0,1,7.4,1.5M121.854,185.7q-5.479,16.139-1.563,35.419c.04.209.08.423.124.637,12.113-6.873,21.23-14.482,27.362-22.708s8.4-16.239,6.813-24.017q-1.217-5.994-5.355-8.53-4.121-2.538-9.948-.7-11.959,3.777-17.433,19.9" transform="translate(318.342 518.721)" fill="#efe9d3"/>
    <path id="Path_22166" data-name="Path 22166" d="M127.638,282.387q-14.848-10.055-19.533-33.01-5.136-25.135,2.235-51.648a124.11,124.11,0,0,1,24.445-46.945q17.087-20.462,39.38-28.158c4.733-1.632,8.1-1.831,10.078-.617s3.976,3.946,6,8.172a89.47,89.47,0,0,1,13.96-6.161q15.833-5.464,18.085,5.539,1.351,6.592,1.573,33.05-.06,38.669,2.837,52.778.963,4.71,3.966,6.7a7.469,7.469,0,0,0,6.878.667q6.136-2.09,13.293-12.755t18.488-32.945q2.979-5.7,7.828-7.326a6.931,6.931,0,0,1,7.4,1.573q3.2,2.971,4.544,9.58,2.568,12.586-2.16,21.539a200.766,200.766,0,0,1-22.6,36.439q-12.616,16.012-26.511,20.753a29.755,29.755,0,0,1-21-.358q-10.339-4.016-17.359-14.681-11.421,32.159-36.947,40.963-20.036,6.913-34.881-3.15m51.936-45.392q4.793-10.384,4.942-24.883.067-30.935.144-61.865-13.5,4.987-23.022,18.523a81.793,81.793,0,0,0-13.094,31.552,89.3,89.3,0,0,0,.025,35.6q1.986,9.734,6.987,13.049t12.113.866q7.107-2.449,11.9-12.84" transform="translate(421.503 482.084)" fill="#efe9d3"/>
    <path id="Path_22167" data-name="Path 22167" d="M155.428,280.838q-7.577-10.9-13.228-38.559a263.134,263.134,0,0,1-3.9-81.662q1.052-10.085,6.8-16.567c3.842-4.31,9.744-7.813,17.722-10.456q6.457-2.142,9.366-1.413T176,137.311q1.023,5.039-.229,24.261-.657,13.661-.672,23.734a229.442,229.442,0,0,0,1.518,24.356q5.143-30.554,14.93-51.887,9.779-21.305,21.066-32.592t21.957-14.552c14-4.28,22.4.543,25.177,14.283q.836,4.113,1.135,20.827-.015,13.452.627,16.617c1.5,7.4,4.942,10.307,10.327,8.759q9.048-2.6,20.444-20.534c2.244-3.523,4.872-5.708,7.888-6.519a7.28,7.28,0,0,1,7.365,1.886q3.165,3.023,4.379,9.087,2.381,11.8-2.737,20.205a100.806,100.806,0,0,1-17.991,21.5,60.809,60.809,0,0,1-24.376,13.785c-11.421,3.319-20.668,3.071-27.75-.821s-11.6-10.665-13.571-20.36a48.608,48.608,0,0,1-.955-9.779q-.642-6.524-1.085-8.734c-.687-3.364-2.22-4.688-4.588-3.942q-4.845,1.523-10.61,14.6-5.778,13.094-9.993,32.916a248.035,248.035,0,0,0-5.161,40.625q-.537,15.975-4.16,22.679c-2.419,4.489-6.972,7.8-13.646,9.993q-12.28,4.039-19.857-6.863" transform="translate(543.819 433.931)" fill="#efe9d3"/>
    <path id="Path_22168" data-name="Path 22168" d="M229.953,264.854c-6.952-3.8-11.068-8.863-12.352-15.288a20.671,20.671,0,0,1,3.245-15.881c3.28-5.016,8.908-8.45,16.881-10.2a68.9,68.9,0,0,1,10.018-1.324c3.877-.249,6.813-.468,8.789-.652a42.015,42.015,0,0,0-6.863-15.04,77.066,77.066,0,0,0-11.421-12.5q-6.554-5.77-12.1-9.884a224.967,224.967,0,0,1-13.581,36.106,262.875,262.875,0,0,1-16.741,28.969q-4.658,7.219-11.123,8.888a10.491,10.491,0,0,1-9.142-1.463,12.646,12.646,0,0,1-5.061-8.221,19.413,19.413,0,0,1,2.15-13q1.583-3.113,3.17-6.221c8.943-17.6,15.487-31.8,19.633-42.7q3.635-10.66,7.953-28.014t8.092-35.732c2.2-10.376,9.779-17.155,22.7-20.041,6.032-1.344,10.341-1.7,12.929-1.13a5.419,5.419,0,0,1,4.579,4.409,24.232,24.232,0,0,1-.07,6.4,48.629,48.629,0,0,1-1.886,9.127q-3.509,12.832-1.9,20.892.963,4.83,5.509,9.933a129.179,129.179,0,0,0,13.392,12.422,200.053,200.053,0,0,1,20.265,20.25,43.95,43.95,0,0,1,9.471,20.036,89.635,89.635,0,0,1,1.155,9.212q14.616-8.809,30.681-38.569,2.979-5.113,7.823-5.733c2.8-.363,5.27.692,7.4,3.12s3.643,5.962,4.544,10.556q2.441,12.489-2.165,21.076-12.183,22.253-25.436,31.7c-8.844,6.315-20.434,10.834-34.782,13.835-7.166,8.888-16.677,14.457-28.521,16.866-11.2,2.284-20.28,1.6-27.232-2.2" transform="translate(676.622 402.686)" fill="#efe9d3"/>
    <path id="Path_22169" data-name="Path 22169" d="M95.579,337.6c-8.834-.742-15.209-2.966-19.125-6.47s-6.435-9.316-7.54-17.374q-4.091-33.219-5.031-82.11-.948-48.873,2.349-94.233c.438-5.6,2.7-9.525,6.808-11.815s9.8-3.519,17.13-3.782c13.138-.478,20.439,2.8,21.9,10.332a34.3,34.3,0,0,1,.114,10.75q-3.277,27.076-3.036,72.236t4.509,85.887a173.684,173.684,0,0,0,22.171-.727c37.7-3.519,63.607-19.867,77.706-45.989,14.094-26.207,17.364-58.585,9.784-96.8-5.091-25.739-16.358-44.262-33.792-56.2-17.433-11.959-39.5-16.338-66.22-14.278A183.447,183.447,0,0,0,73.687,97.706c-15.846,5.823-29.676,12.914-41.5,21.589a12.046,12.046,0,0,1-8.47,2.608q-5.494-.306-9.655-5.459a27.35,27.35,0,0,1-5.509-12.332Q7.012,95.937,8.6,90.843a18.388,18.388,0,0,1,6.9-9.077C28.354,72.1,44.275,64.81,63.261,59.321a272.525,272.525,0,0,1,56.276-10.312c26.287-1.906,49.921-.065,70.922,6.3s38.415,17.04,52.265,32.632,23.261,35.658,28.223,60.536q9.7,48.545-2.468,89.067a136.146,136.146,0,0,1-45.352,67.792C201,323.229,172.812,334.74,138.558,338a229.085,229.085,0,0,1-42.979-.4" transform="translate(30.993 192.051)" fill="#efe9d3"/>
    <path id="Path_22170" data-name="Path 22170" d="M88.447,222.586c-9.9-7.485-16.408-19.086-19.533-34.653a107.79,107.79,0,0,1,2.23-51.449,112.9,112.9,0,0,1,24.45-44.944q17.087-19.17,39.38-25.58,7.107-2.068,10.078-.095c1.986,1.329,3.976,4.16,6,8.465a88.775,88.775,0,0,1,13.96-5.549c10.555-3.215,16.587-1.189,18.085,6.181q1.344,6.629,1.573,33.1-.06,38.646,2.837,52.857.963,4.733,3.966,6.813a7.513,7.513,0,0,0,6.878.836q6.136-1.948,13.293-12.5t18.488-32.742q2.979-5.688,7.828-7.291a6.971,6.971,0,0,1,7.4,1.578q3.2,2.956,4.539,9.57,2.575,12.579-2.155,21.544a197.589,197.589,0,0,1-22.6,36.369q-12.616,15.893-26.511,20.335a29.423,29.423,0,0,1-21-.956q-10.347-4.36-17.359-15.343c-7.614,21.111-19.927,34.225-36.947,39.052-13.362,3.792-24.988,1.886-34.881-5.6m51.936-41.968q4.793-10.13,4.942-24.63.067-30.935.144-61.86-13.512,4.33-23.022,17.244a76.468,76.468,0,0,0-13.094,30.7,89.311,89.311,0,0,0,.02,35.6q1.986,9.876,6.992,13.517t12.113,1.617q7.107-2.045,11.9-12.183" transform="translate(265.653 258.105)" fill="#efe9d3"/>
    <path id="Path_22171" data-name="Path 22171" d="M116.234,226.5q-7.577-10.914-13.218-38.639a263.153,263.153,0,0,1-3.907-81.692q1.045-10.093,6.808-16.508,5.741-6.427,17.712-10.406c4.3-1.433,7.435-1.926,9.366-1.453s3.21,2.165,3.812,5.106q1.023,5.031-.234,24.261-.657,13.661-.667,23.744a226.573,226.573,0,0,0,1.518,24.346q5.136-30.614,14.92-52.076t21.071-33.055q11.294-11.593,21.957-15.273,21-7.234,25.177,13.148,2.508,12.235,1.946,46.7-.56,29.412,1.239,38.2c1.712,8.381,5.7,11.471,11.939,9.321q6.465-2.225,13.78-12.974t18.653-33.1q2.979-5.718,7.828-7.375a6.929,6.929,0,0,1,7.39,1.513c2.135,1.971,3.643,5.141,4.544,9.55q2.568,12.571-2.16,21.554A177.808,177.808,0,0,1,261.4,178.9a77.214,77.214,0,0,1-34.17,23.181q-16.483,5.7-26.784-.667T186.555,177.48q-1.792-8.779-1.9-32.941.164-21.216-1.383-28.75c-.682-3.334-2.21-4.613-4.574-3.8q-4.218,1.456-9.65,14.562-5.442,13.131-9.834,33.085a239.568,239.568,0,0,0-5.32,40.774q-.523,15.975-4.156,22.743-3.628,6.786-13.651,10.157-12.28,4.121-19.857-6.808" transform="translate(387.972 210.6)" fill="#efe9d3"/>
    <path id="Path_22172" data-name="Path 22172" d="M158.136,196.474q-21.186-11.444-27.018-39.983-5.2-25.418,1.219-48.124,6.427-22.686,20.792-38.684,14.363-15.975,32.463-22.047,17.767-5.935,29.711,1.11t15.224,23.132q2.695,13.235-1.423,24.306t-13.81,14.208q-6.144,2-10.436.393t-5.325-6.644a24.3,24.3,0,0,1-.378-5.25c.05-2.025.09-3.5.134-4.409a28.776,28.776,0,0,0-.184-9.346q-.829-4.083-3.379-5.594c-1.7-1.005-3.842-1.085-6.43-.219q-7.435,2.478-12.581,11.1t-6.778,20.927A76.6,76.6,0,0,0,171,136.854c4.967,24.316,18.324,32.766,40.092,25.635q13.243-4.33,26.834-17.891t24.923-35.513q2.979-5.621,7.823-7.092a7.061,7.061,0,0,1,7.4,1.792c2.125,2.055,3.643,5.29,4.544,9.729q2.441,12.041-2.16,21.469a126.485,126.485,0,0,1-30.611,39.445Q230.693,191,210.978,197.46c-21.116,6.913-38.728,6.654-52.842-.985" transform="translate(512.152 178.677)" fill="#efe9d3"/>
    <path id="Path_22173" data-name="Path 22173" d="M162.674,77.142q-8.04-4.046-10.287-15.084t5.131-21.265c4.917-6.8,11.79-11.576,20.628-14.263q11.951-3.643,20.549-.1t10.7,14.009q2.568,12.705-4.32,22.584-6.905,9.9-20.792,14.054c-9.048,2.727-16.254,2.772-21.614.07M182.685,242.5q-12.489-11.668-17.369-35.668-2.882-14.213-3.7-37.648a357.4,357.4,0,0,1,1.095-44.511q.851-11.026,4.927-16.314t14.741-8.535c10.993-3.324,17.214-1.319,18.667,5.862q1.6,7.928,1.309,38.584-.694,37.161,1.806,49.523,1.926,9.518,5.539,13.845t9.754,2.593q5.815-1.642,12.939-12.009t18.195-31.448c1.991-3.653,4.593-5.912,7.823-6.748a7.275,7.275,0,0,1,7.4,2.135q3.2,3.225,4.544,9.943,2.568,12.8-2.165,21.37-24.224,46.753-52.016,54.639c-14.009,3.991-25.172,2.18-33.493-5.614" transform="translate(603.907 98.166)" fill="#efe9d3"/>
    <path id="Path_22174" data-name="Path 22174" d="M188.315,195.217q-7.577-11.474-13.228-39.52a265.845,265.845,0,0,1-3.9-81.931c.7-6.674,2.971-12.058,6.8-16.095s9.749-7.112,17.722-9.127c4.3-1.09,7.43-1.3,9.366-.662s3.2,2.463,3.807,5.449q1.03,5.136-.229,24.241-.657,13.609-.672,23.684a234.474,234.474,0,0,0,1.518,24.485q5.143-30.136,14.925-50.578Q234.2,54.755,245.5,44.583q11.287-10.145,21.952-12.248c14-2.742,22.4,3.115,25.177,17.179q2.508,12.661,1.946,47.03-.56,29.322,1.239,38.42c1.717,8.669,5.693,12.467,11.939,11.471q6.465-1.03,13.78-10.317c4.877-6.191,11.093-15.96,18.648-29.223,1.991-3.379,4.6-5.275,7.828-5.648,2.8-.328,5.27.742,7.4,3.2s3.643,5.992,4.544,10.61q2.568,13.168-2.16,21.051a134.139,134.139,0,0,1-24.311,32.119c-9.207,8.834-20.6,14.273-34.17,16.542-10.993,1.836-19.917.194-26.779-5.1s-11.5-13.92-13.895-25.973q-1.792-9.033-1.891-33.2.149-21.193-1.389-28.939c-.687-3.434-2.215-4.917-4.579-4.419q-4.21.888-9.645,13.328t-9.834,31.92a228.955,228.955,0,0,0-5.315,40.182q-.537,15.923-4.165,22.3c-2.419,4.265-6.967,7.171-13.646,8.809-8.192,2-14.806-.791-19.857-8.45" transform="translate(674.604 125.973)" fill="#efe9d3"/>
    <path id="Path_22175" data-name="Path 22175" d="M376.764,116.629a27.1,27.1,0,0,1,4.449,10.979q1.478,7.868.05,12.1a14.605,14.605,0,0,1-5.634,7.221c-16.05,11.64-27.785,20.812-35.2,26.819q-8.958,6.92-17.921,14.069,1.008,69.559-11.262,109.332c-8.172,26.61-22.5,40.047-42.964,41.291-10.989.682-20.6-2.045-28.845-8.306S225.981,315.233,223.8,304.06c-3.041-15.552-.279-32.975,8.3-52.136,8.575-19.105,26.909-43.536,55-71.3q-.284-6.547-.562-13.084a31.053,31.053,0,0,1-11.72,14.482,34.312,34.312,0,0,1-16.682,5.932c-13.362.99-24.988-2.872-34.881-11.83s-16.408-21.275-19.533-37.206a106.222,106.222,0,0,1,2.23-51.19c4.907-16.657,13.059-30.6,24.445-41.55s24.52-17.005,39.38-17.891c4.738-.284,8.1.513,10.083,2.314s3.976,5.146,6,9.983a59.5,59.5,0,0,1,13.965-1.767c5.38-.119,9.371.682,11.954,2.349s4.345,4.977,5.285,9.9a50.878,50.878,0,0,1,.9,6.385q.7,10.421,2,52.748.246,8.055.622,17.637t.816,20.33a371.286,371.286,0,0,1,41.023-34.145,11.082,11.082,0,0,1,6.923-2.2c2.8.214,5.28,1.816,7.425,4.8M275.7,143.518q4.994-9.652,4.559-27.1-.314-28.7-.637-57.411c-8.789.647-16.3,4.673-22.534,11.964-6.241,7.311-10.545,16.712-12.934,28.113a89.429,89.429,0,0,0,.025,35.608q1.993,10.235,6.987,14.85a15.548,15.548,0,0,0,12.118,4.131q7.428-.5,12.417-10.152m4.315,141.546q6.33-20.454,7.286-64.473c-13.765,15.313-23.176,29.313-28.228,41.545s-6.733,22.8-5.021,31.617a20.582,20.582,0,0,0,3.9,9.112,8.516,8.516,0,0,0,7.659,3.16q8.077-.523,14.407-20.962" transform="translate(801.736 112.288)" fill="#efe9d3"/>
    <path id="Path_22176" data-name="Path 22176" d="M129.478,106.212q1.023,5.054,2.05,10.1-9.839,3.046-19.673,6,5.2,25.65,10.4,51.27-5.77,1.762-11.541,3.489-5.2-25.65-10.4-51.329-10.272,3.023-20.534,5.932-1.03-5.076-2.055-10.157,25.874-7.293,51.747-15.3" transform="translate(309.11 422.37)" fill="#ebdaa9"/>
    <path id="Path_22177" data-name="Path 22177" d="M101.3,113.348q2.531,12.444,5.066,24.883,10.436-3.322,20.877-6.723-2.531-12.422-5.066-24.848,5.815-1.881,11.625-3.787,6.226,30.539,12.452,61.049-5.808,1.926-11.625,3.832-2.665-13.086-5.335-26.177-10.436,3.4-20.877,6.738,2.665,13.116,5.335,26.217-5.77,1.851-11.536,3.678-6.226-30.6-12.452-61.238,5.763-1.8,11.536-3.623" transform="translate(356.958 409.088)" fill="#ebdaa9"/>
    <path id="Path_22178" data-name="Path 22178" d="M126.072,139.326c-.547.224-1.488.592-2.518.941-1.379.458-2.941.941-3.927,1.274q2.486,12.19,4.977,24.371-5.77,1.933-11.541,3.867-6.226-30.51-12.452-61.019c3.847-1.279,7.689-2.548,11.536-3.837,12.053-4.006,31.059-10.142,34.727,7.8,1.722,8.416-1.4,15.652-9.769,20.907q10.436,10.5,20.862,20.952-6.592,2.247-13.173,4.494-9.361-9.854-18.722-19.747m-5.469-8.988c10.247-3.444,15.965-6.34,14.477-13.611s-7.584-6.241-17.831-2.817l-3.056,1.03q1.68,8.2,3.354,16.423c1.015-.343,2.035-.682,3.056-1.025" transform="translate(400.096 399.971)" fill="#ebdaa9"/>
    <path id="Path_22179" data-name="Path 22179" d="M133.032,97.928c19.374-6.674,30.009,8.351,32.926,22.609,2.882,14.084-.6,34-19.976,40.679-19.324,6.674-30.054-8.366-32.936-22.465-2.916-14.273.662-34.17,19.986-40.824m2.055,10.028c-10.934,3.767-11.969,16.289-9.854,26.62,2.08,10.157,7.764,20.379,18.7,16.607,10.979-3.792,11.959-16.3,9.884-26.456-2.11-10.322-7.749-20.549-18.727-16.771" transform="translate(445.979 382.933)" fill="#ebdaa9"/>
    <path id="Path_22180" data-name="Path 22180" d="M130.842,143.165q-3.718-18.185-7.44-36.365,5.77-1.986,11.536-3.976,3.725,18.177,7.44,36.365c1.558,7.609,5.887,15.025,14.193,12.173,8.356-2.862,9.282-12.078,7.724-19.693q-3.725-18.192-7.44-36.379,5.763-1.978,11.531-3.946,3.725,18.192,7.445,36.389c3.11,15.239-2.523,28.641-17.2,33.667-14.636,5.021-24.669-3.016-27.785-18.234" transform="translate(490.729 363.241)" fill="#ebdaa9"/>
    <path id="Path_22181" data-name="Path 22181" d="M136.1,129.448c-2.891-14.139.946-33.234,20.623-39.838,8.734-2.931,17.607-.9,22.728,5.743q-5.188,3.628-10.371,7.276c-1.538-2.8-7.769-3.812-10.307-2.966-10.118,3.384-12.432,16.179-10.491,25.67,2.175,10.63,9.321,21.519,19.349,18.185,10.635-3.524,10.929-13.323,9.739-19.15q-6.517,2.142-13.044,4.32-1.023-5.031-2.05-10.058,12.5-4.166,25.013-8.256.627,3.068,1.249,6.126c2.737,13.437-.229,30.83-18.871,36.992-19.588,6.5-30.447-8.759-33.568-24.042" transform="translate(537.816 351.148)" fill="#ebdaa9"/>
    <path id="Path_22182" data-name="Path 22182" d="M158.276,93.986q2.531,12.429,5.061,24.873,10.444-3.329,20.877-6.579-2.531-12.459-5.061-24.913,5.815-1.814,11.626-3.608Q197,114.418,203.23,145.116q-5.815,1.754-11.621,3.543-2.672-13.146-5.34-26.277-10.436,3.232-20.877,6.559,2.665,13.116,5.335,26.232-5.763,1.821-11.536,3.673-6.226-30.584-12.452-61.133,5.763-1.881,11.536-3.728" transform="translate(583.536 333.082)" fill="#ebdaa9"/>
    <path id="Path_22183" data-name="Path 22183" d="M214.345,78.792q1.023,5.1,2.05,10.207-9.839,2.538-19.673,5.206,5.2,25.8,10.4,51.633-5.77,1.53-11.541,3.1-5.2-25.8-10.4-51.558-10.272,2.852-20.534,5.828-1.03-5.069-2.055-10.137,25.874-7.532,51.747-14.273" transform="translate(646.598 313.33)" fill="#ebdaa9"/>
    <path id="Path_22184" data-name="Path 22184" d="M186.171,83.861q2.531,12.623,5.066,25.257,10.436-2.523,20.877-4.892-2.531-12.676-5.066-25.336,5.815-1.336,11.625-2.623,6.226,31.2,12.452,62.467-5.808,1.224-11.625,2.5-2.665-13.37-5.335-26.735-10.436,2.344-20.877,4.857,2.665,13.318,5.335,26.65-5.771,1.366-11.536,2.782-6.233-31.054-12.457-62.049,5.77-1.463,11.541-2.882" transform="translate(694.445 303.288)" fill="#ebdaa9"/>
    <path id="Path_22185" data-name="Path 22185" d="M227.754,74.184q1.023,5.188,2.05,10.381-15.37,2.665-30.741,5.758,1.5,7.532,3,15.064,14.012-2.784,28.028-5.206,1.023,5.188,2.05,10.386-14.012,2.4-28.024,5.156,1.65,8.316,3.3,16.627,15.37-2.979,30.741-5.519,1.023,5.2,2.05,10.4-21.141,3.441-42.277,7.734Q191.7,113.651,185.477,82.4q21.141-4.5,42.277-8.216" transform="translate(737.58 295.005)" fill="#ebdaa9"/>
  </g>
</svg>
